<?xml version="1.0" encoding="UTF-8" standalone="no"?>
<!DOCTYPE svg PUBLIC "-//W3C//DTD SVG 1.1//EN" "http://www.w3.org/Graphics/SVG/1.1/DTD/svg11.dtd">
<svg width="100%" height="100%" viewBox="0 0 100 100" version="1.1" xmlns="http://www.w3.org/2000/svg" xmlns:xlink="http://www.w3.org/1999/xlink" xml:space="preserve" xmlns:serif="http://www.serif.com/" style="fill-rule:evenodd;clip-rule:evenodd;stroke-linejoin:round;stroke-miterlimit:2;">
    <g transform="matrix(0.77437,0,0,0.77437,9.0833,-0.208424)">
        <g>
            <g transform="matrix(0.875748,0,0,0.875748,30.1687,-36.9575)">
                <path d="M49.867,89.714C49.522,88.678 49.107,87.642 48.693,86.675C47.992,85.584 47.131,84.606 46.137,83.774C46.132,83.59 46.208,83.413 46.345,83.29L46.483,83.083C46.891,82.329 47.171,81.512 47.312,80.666L47.381,80.39L47.381,80.32C47.495,79.729 47.542,79.127 47.519,78.525C47.599,77.952 47.645,77.376 47.657,76.798C47.67,76.629 47.717,76.465 47.795,76.315C47.889,75.954 47.912,75.579 47.864,75.209C47.933,74.613 47.933,74.01 47.864,73.414L47.864,73.068C47.979,72.519 47.955,71.949 47.795,71.411C47.705,71.036 47.541,70.684 47.312,70.375C47.392,70.195 47.461,70.01 47.519,69.822C47.876,68.752 47.924,67.603 47.657,66.507C47.849,65.952 47.943,65.367 47.933,64.78C47.94,64.594 47.917,64.407 47.864,64.228L47.864,64.02C47.846,63.593 47.752,63.172 47.588,62.777C47.649,62.202 47.528,61.622 47.242,61.12C47.23,60.771 47.184,60.424 47.104,60.084C46.739,58.965 45.779,58.138 44.618,57.942L44.48,57.942L43.237,57.528C42.695,57.391 42.138,57.322 41.579,57.321C41.024,57.333 40.47,57.379 39.921,57.459C39.567,57.247 39.198,57.063 38.816,56.906C38.16,56.501 37.434,56.22 36.675,56.078C36.431,55.992 36.174,55.946 35.915,55.94L35.639,55.94C35.051,55.799 34.448,55.729 33.843,55.732C33.33,55.733 32.819,55.803 32.324,55.94L31.633,55.94C31.15,55.94 30.804,55.87 30.528,55.87L29.078,55.87C28.407,55.813 27.731,55.86 27.075,56.009L26.867,56.009C26.409,55.949 25.948,55.926 25.486,55.94L25.072,55.94L24.036,55.663C24.036,55.663 22.723,55.318 22.033,55.18L21.618,55.042C21.372,54.911 21.119,54.796 20.859,54.696L20.72,54.696C20.582,54.627 20.444,54.627 20.306,54.489C19.674,54.213 18.992,54.072 18.303,54.075L18.027,54.075C17.735,53.99 17.433,53.943 17.129,53.937L16.162,53.937C14.705,53.953 13.428,54.946 13.054,56.354L13.123,56.354L13.054,56.285C12.835,56.108 12.604,55.946 12.363,55.801C11.602,55.373 10.749,55.136 9.877,55.111L9.67,55.111C9.122,55.119 8.582,55.236 8.081,55.456C7.797,55.492 7.519,55.562 7.252,55.663C6.548,55.745 5.891,56.062 5.387,56.561C4.8,56.781 4.326,57.23 4.075,57.804C3.575,58.45 3.242,59.209 3.108,60.015C2.953,60.464 2.837,60.926 2.763,61.396L2.486,61.81L2.417,61.948C2.117,62.445 1.885,62.979 1.727,63.537C0.989,64.085 0.455,64.863 0.207,65.747C-0.138,66.783 0.069,68.095 0.691,69.822C0.691,69.891 0.829,70.168 1.243,71.48L1.381,71.963L1.381,72.032C1.658,72.999 1.865,73.552 1.934,73.897C2.213,74.758 2.443,75.635 2.625,76.522C2.625,76.66 2.556,76.729 2.556,76.867L2.486,77.005L2.141,77.558C2.072,77.696 1.934,77.903 1.865,78.041C0.672,78.65 0.001,79.964 0.207,81.287C0.207,81.978 0.345,84.534 0.414,84.81C0.414,84.948 0.414,85.224 0.898,89.368L0.898,89.576C1.036,90.75 1.381,93.305 1.589,94.548C0.622,95.654 0.898,97.173 1.036,98.002L1.036,98.071C1.105,98.416 1.243,100.626 1.312,101.801L1.312,102.698C1.312,103.113 1.381,103.458 1.381,103.735C1.381,104.218 1.45,104.494 1.45,104.632C1.45,104.771 1.45,105.254 1.519,108.086L1.519,110.434C1.519,110.918 1.243,114.164 1.174,114.647L1.174,114.716C0.955,115.573 0.908,116.466 1.036,117.341C1.091,117.499 1.137,117.661 1.174,117.824C1.036,118.101 0.967,118.377 0.76,118.86L0.76,119.068C0.275,120.294 0.403,121.681 1.105,122.797C1.162,123.376 1.116,123.961 0.967,124.524C0.498,125.54 0.4,126.689 0.691,127.77C0.866,128.429 1.254,129.013 1.796,129.428C1.459,130.58 1.583,131.819 2.141,132.881C2.348,133.296 2.486,133.71 2.694,134.124C2.829,134.477 2.899,134.852 2.901,135.229C2.701,135.519 2.517,135.819 2.348,136.127C2.184,136.474 2.09,136.849 2.072,137.232C1.105,138.13 0.898,139.443 1.381,141.169L1.381,141.307L1.519,141.722C1.589,141.876 1.635,142.038 1.658,142.205C1.525,142.562 1.432,142.933 1.381,143.31L1.381,143.725C0.957,145.354 1.314,147.092 2.348,148.421C2.39,148.897 2.506,149.364 2.694,149.803C2.706,150.197 2.752,150.59 2.832,150.977L2.832,151.115L2.901,151.184L2.901,151.253C2.881,151.832 2.927,152.412 3.039,152.98C2.832,153.671 2.556,154.568 2.486,154.845L2.417,155.052C2.13,156.121 1.9,157.205 1.727,158.298C1.589,159.265 1.312,161.199 1.312,161.752C1.255,163.203 1.301,164.658 1.45,166.103C1.519,166.517 1.519,168.175 1.519,169.004C1.572,170.532 2.104,172.007 3.039,173.217L2.97,173.493C2.744,174.007 2.56,174.539 2.417,175.082C2.234,175.92 2.187,176.783 2.279,177.637L2.279,177.706C2.335,179.08 3.058,180.345 4.213,181.091C5.229,181.789 6.383,182.26 7.597,182.472L7.736,182.472C8.081,182.472 8.426,182.541 8.841,182.541C9.396,182.529 9.949,182.483 10.498,182.403C10.762,182.547 11.039,182.663 11.327,182.748C12.272,183.928 13.478,184.874 14.85,185.511C16.576,186.271 18.856,186.34 20.375,186.34L21.342,186.34C22.102,186.34 25.348,186.202 27.006,185.58C28.163,185.178 29.373,184.945 30.597,184.889C31.797,184.828 32.972,184.522 34.05,183.991L35.501,183.646L35.57,183.646L35.846,183.577L35.984,183.508C37.2,184.042 38.526,184.279 39.852,184.199L40.059,184.199C41.51,184.199 43.444,184.06 44.687,183.301C44.979,183.116 45.257,182.908 45.516,182.679L45.861,182.403L45.999,182.265C46.793,181.787 47.328,180.973 47.45,180.055C47.598,179.634 47.645,179.184 47.588,178.742C47.588,178.535 47.657,178.328 47.657,178.19L47.864,178.121L47.657,176.463L47.657,176.187C47.704,175.657 47.681,175.122 47.588,174.598L47.588,174.184C47.599,173.86 47.576,173.536 47.519,173.217C47.519,173.01 47.588,172.802 47.588,172.595L47.588,171.766C47.645,171.471 47.668,171.169 47.657,170.869C47.735,170.694 47.782,170.507 47.795,170.316C47.872,170.19 47.919,170.048 47.933,169.902C47.933,169.832 48.002,169.694 48.002,169.625C48.002,169.556 48.071,169.28 48.14,169.142C48.566,168.14 48.686,167.035 48.486,165.965C48.341,165.02 47.934,164.134 47.312,163.409C47.242,163.271 47.173,163.202 47.104,163.064C47.253,162.525 47.3,161.963 47.242,161.406L47.242,161.13C47.245,160.374 47.105,159.624 46.828,158.92C46.826,158.792 46.777,158.669 46.69,158.574C46.607,158.106 46.492,157.645 46.345,157.193L46.345,156.917C46.345,156.779 46.275,156.571 46.275,156.364C46.692,155.738 46.974,155.033 47.104,154.292L47.104,154.085C47.173,153.809 47.173,153.463 47.242,153.187C47.368,152.667 47.391,152.128 47.312,151.599C47.86,150.975 48.219,150.208 48.348,149.388C48.45,148.864 48.52,148.333 48.555,147.8L48.555,146.833C48.693,146.079 48.693,145.307 48.555,144.554C48.527,144.291 48.457,144.034 48.348,143.794C48.298,142.501 48.065,141.222 47.657,139.995C47.355,139.186 46.911,138.437 46.345,137.785C46.345,137.716 46.275,137.578 46.275,137.509L46.206,137.163L46.137,136.611L46.137,136.542C46.011,135.908 45.777,135.301 45.447,134.746C45.863,134.43 46.176,133.997 46.345,133.503L46.552,133.296C47.123,132.819 47.514,132.161 47.657,131.431L47.726,131.154C48.119,130.151 48.094,129.031 47.657,128.046C47.729,127.218 47.586,126.386 47.242,125.629L47.242,125.56C47.281,125.045 47.21,124.527 47.035,124.04C47.092,123.886 47.115,123.721 47.104,123.557C47.184,123.264 47.23,122.963 47.242,122.659C47.45,122.055 47.45,121.398 47.242,120.794C47.714,119.831 47.882,118.747 47.726,117.686C47.713,117.451 47.667,117.218 47.588,116.996C47.479,116.636 47.41,116.265 47.381,115.89C47.313,115.033 47.103,114.193 46.759,113.404C46.724,113.198 46.701,112.991 46.69,112.782L46.69,112.299C46.699,111.929 46.676,111.559 46.621,111.194L46.621,110.987C46.474,110.332 46.29,109.686 46.068,109.053L46.137,108.915C46.042,108.576 45.902,108.251 45.723,107.948C45.729,107.784 45.705,107.62 45.654,107.464L45.654,107.326C45.595,106.882 45.503,106.444 45.378,106.014L45.309,105.737C45.189,105.263 45.027,104.801 44.825,104.356L44.549,103.804C44.491,103.615 44.422,103.431 44.342,103.251L44.342,102.491C44.353,102.236 44.33,101.981 44.273,101.732C44.604,101.492 44.905,101.214 45.17,100.903C45.309,100.834 45.516,100.557 45.723,100.419L45.999,100.212L46.414,99.798C47.071,99.269 47.612,98.611 48.002,97.864L48.071,97.795L48.071,97.726C48.071,97.657 48.14,97.587 48.14,97.449L48.14,97.38C48.158,97.276 48.206,97.18 48.278,97.104C48.569,96.506 48.8,95.882 48.969,95.239C49.473,94.72 49.83,94.076 50.005,93.374L50.005,92.96C50.074,92.684 50.074,92.338 50.143,92.2C50.235,91.361 50.14,90.512 49.867,89.714ZM48.278,91.579C48.254,91.835 48.208,92.089 48.14,92.338L48.14,92.615C48.04,93.104 47.74,93.531 47.312,93.789C47.304,93.841 47.28,93.89 47.242,93.927L47.242,94.065C47.108,94.686 46.9,95.289 46.621,95.861C46.499,96.078 46.406,96.31 46.345,96.551C46.345,96.69 46.275,96.69 46.275,96.759C46.054,97.223 45.722,97.626 45.309,97.933C45.091,98.08 44.903,98.268 44.756,98.485L44.342,98.9C44.077,99.093 43.844,99.326 43.651,99.59C43.453,99.811 43.219,99.998 42.96,100.143C42.822,100.281 42.615,100.419 42.546,100.488L42.546,100.626C42.408,100.765 42.27,100.834 42.131,100.972L42.131,101.179C42.234,101.587 42.303,102.003 42.339,102.422L42.339,103.596C42.422,103.974 42.538,104.344 42.684,104.701L42.96,105.323C43.098,105.668 43.237,106.014 43.375,106.428L43.444,106.704C43.513,106.981 43.582,107.326 43.651,107.671L43.651,108.5C43.876,108.871 44.061,109.264 44.203,109.674L44.273,109.882C44.511,110.433 44.674,111.013 44.756,111.608C44.813,111.857 44.836,112.113 44.825,112.368L44.825,112.575C44.831,112.693 44.854,112.809 44.894,112.921L44.894,112.99C44.906,113.293 44.953,113.594 45.032,113.887C45.311,114.477 45.497,115.106 45.585,115.752C45.643,116.264 45.736,116.772 45.861,117.272C45.911,117.38 45.935,117.498 45.93,117.617C46.025,118.327 45.905,119.049 45.585,119.689C45.432,119.82 45.314,119.986 45.239,120.173L45.17,120.242C45.222,120.374 45.245,120.515 45.239,120.656C45.239,120.725 45.309,120.794 45.378,120.863C45.641,121.228 45.668,121.715 45.447,122.107C45.468,122.39 45.421,122.674 45.309,122.935L45.309,123.074C45.306,123.362 45.235,123.646 45.101,123.902L45.101,124.04C45.384,124.468 45.507,124.982 45.447,125.491L45.447,125.56C45.447,125.629 45.516,125.698 45.516,125.767C45.585,125.974 45.585,126.113 45.654,126.32C45.917,126.805 46.014,127.363 45.93,127.908L45.93,128.461L45.999,128.668L45.999,128.737C46.272,129.304 46.272,129.966 45.999,130.533L45.861,130.878C45.795,131.18 45.623,131.45 45.378,131.638C45.179,131.859 44.946,132.045 44.687,132.19C44.692,132.229 44.694,132.267 44.694,132.305C44.694,132.779 44.33,133.181 43.858,133.227C43.72,133.227 43.651,133.296 43.513,133.365C43.519,133.529 43.495,133.692 43.444,133.848C43.532,134.091 43.556,134.353 43.513,134.608C43.498,134.755 43.451,134.896 43.375,135.022C43.775,135.555 44.057,136.168 44.203,136.818L44.273,137.44C44.325,137.619 44.349,137.805 44.342,137.992C44.492,138.215 44.542,138.491 44.48,138.752C45.106,139.203 45.586,139.827 45.861,140.548C46.218,141.641 46.404,142.782 46.414,143.932L46.414,144.208C46.546,144.369 46.641,144.558 46.69,144.761L46.69,144.83C46.759,145.357 46.759,145.891 46.69,146.418C46.633,146.597 46.61,146.784 46.621,146.971L46.621,147.524C46.552,147.938 46.483,148.56 46.414,148.905C46.327,149.445 46.088,149.948 45.723,150.355L45.447,150.77C45.363,150.875 45.293,150.991 45.239,151.115C45.366,151.658 45.389,152.221 45.309,152.773L45.101,153.809L45.101,153.878C44.989,154.573 44.677,155.221 44.203,155.743C44.203,156.019 44.273,156.295 44.273,156.571C44.273,156.71 44.342,156.917 44.342,157.124L44.342,157.262C44.342,157.4 44.342,157.469 44.411,157.538C44.491,157.742 44.56,157.949 44.618,158.16L43.306,157.193C41.847,156.162 40.463,155.031 39.162,153.809L38.678,153.325L39.3,152.773L39.714,152.427C39.714,152.427 40.405,151.806 41.51,150.908L41.579,150.839C41.882,150.467 42.258,150.162 42.684,149.941C44.103,149.228 45.121,147.904 45.447,146.349C45.447,146.142 45.378,145.797 44.273,144.623L42.339,137.094L42.684,145.313L42.753,145.452C43,145.747 43.208,146.072 43.375,146.418C42.105,147.826 40.693,149.099 39.162,150.217C38.869,150.427 38.592,150.658 38.333,150.908C38.056,151.115 37.435,151.668 35.501,153.325C32.186,156.226 26.66,161.13 24.934,161.89C24.574,162.047 24.228,162.231 23.897,162.442C22.24,163.271 21.066,163.893 19.477,163.409L16.645,162.511L18.994,164.307C19.739,164.899 20.666,165.216 21.618,165.205C23.103,165.086 24.542,164.637 25.831,163.893C26.052,163.804 26.261,163.688 26.453,163.547C26.599,163.832 26.76,164.109 26.936,164.376C27.198,164.761 27.407,165.179 27.558,165.619C28.042,167.622 28.18,168.935 26.729,169.625L24.105,170.799L26.936,170.523C27.769,170.465 28.531,170.033 29.009,169.349C29.707,168.105 29.833,166.618 29.354,165.274C29.148,164.667 28.87,164.087 28.525,163.547L28.525,163.478L27.903,162.442L28.387,162.097C28.594,161.959 28.87,161.752 29.009,161.682L29.354,162.235C30.183,163.616 31.357,165.343 32.945,165.827C33.715,166.092 34.56,166.042 35.294,165.688C35.605,165.637 35.894,165.492 36.123,165.274C38.045,163.846 38.875,161.354 38.195,159.058C38.042,158.096 37.739,157.163 37.297,156.295C37.094,155.946 36.932,155.576 36.813,155.19L36.882,155.052C37.02,154.914 37.089,154.776 37.228,154.707L37.573,155.121L37.642,155.19C39.05,156.533 40.753,157.526 42.615,158.091L44.134,158.643L44.549,158.713L44.549,158.782C44.609,159.09 44.702,159.391 44.825,159.68C44.902,159.806 44.949,159.947 44.963,160.094L42.339,161.475C40.855,162.602 39.51,163.9 38.333,165.343C37.826,166.103 37.452,166.944 37.228,167.83C37.02,168.589 36.882,169.073 36.399,169.349C34.534,170.454 27.282,173.631 25.348,173.424L25.003,173.424L24.934,173.769C24.519,175.565 26.591,176.187 28.111,176.67C29.147,176.946 30.183,177.292 30.114,177.775L29.699,180.952L30.873,177.983C31.288,176.808 29.837,175.634 28.318,174.805C31.562,173.966 34.693,172.737 37.642,171.145C38.747,170.454 39.023,169.211 39.369,167.968C39.495,167.29 39.728,166.638 40.059,166.034L40.128,165.965C40.882,164.564 41.811,163.264 42.891,162.097L45.101,160.163C45.159,160.505 45.182,160.852 45.17,161.199L45.17,161.406C45.216,161.753 45.193,162.105 45.101,162.442C45.084,162.546 45.036,162.642 44.963,162.718L44.963,162.788C44.917,163.007 44.795,163.203 44.618,163.34L45.032,163.755C45.292,163.932 45.505,164.169 45.654,164.445C46.066,164.855 46.333,165.389 46.414,165.965C46.551,166.661 46.479,167.382 46.206,168.037C46.084,168.302 45.991,168.58 45.93,168.866C45.939,168.941 45.914,169.018 45.861,169.073C45.844,169.177 45.796,169.273 45.723,169.349C45.723,169.418 45.654,169.556 45.654,169.625C45.596,169.814 45.527,169.998 45.447,170.178C45.473,170.62 45.426,171.063 45.309,171.49C45.365,171.621 45.388,171.763 45.378,171.905C45.378,172.043 45.447,172.181 45.378,172.319C45.389,172.529 45.366,172.739 45.309,172.941C45.4,173.207 45.424,173.492 45.378,173.769L45.378,174.598C45.433,174.987 45.456,175.38 45.447,175.772L45.447,176.394C45.504,176.806 45.527,177.222 45.516,177.637L45.516,177.913C45.527,178.123 45.504,178.333 45.447,178.535L45.447,178.604C45.508,178.91 45.459,179.229 45.309,179.502C45.312,179.9 45.101,180.27 44.756,180.469C44.634,180.551 44.518,180.644 44.411,180.745L44.065,181.021C43.852,181.205 43.621,181.367 43.375,181.505C42.242,181.989 41.012,182.202 39.783,182.127L39.576,182.127C37.642,182.127 36.882,181.919 35.915,181.229L35.777,181.229C35.472,181.258 35.184,181.378 34.948,181.574L34.81,181.643L34.672,181.643C34.176,181.8 33.668,181.916 33.153,181.988L32.945,182.058C32.089,182.496 31.144,182.732 30.183,182.748C28.745,182.817 27.326,183.096 25.97,183.577C24.344,183.992 22.674,184.2 20.997,184.199L20.099,184.199C18.786,184.199 16.645,184.13 15.264,183.508C13.973,182.984 12.9,182.033 12.225,180.814C11.816,180.773 11.417,180.656 11.051,180.469L10.913,180.4C10.844,180.4 10.844,180.331 10.775,180.331C10.584,180.318 10.397,180.271 10.222,180.193C9.654,180.307 9.074,180.354 8.495,180.331C8.194,180.34 7.893,180.317 7.597,180.262L7.528,180.262C6.59,180.105 5.696,179.752 4.904,179.226C4.184,178.851 3.73,178.104 3.73,177.292L3.73,177.154C3.672,176.506 3.719,175.853 3.868,175.22L4.282,173.977C4.42,173.7 4.489,173.355 4.628,173.01L4.628,172.871C4.697,172.595 4.697,172.457 4.213,171.905C3.524,171.007 3.115,169.925 3.039,168.796C3.039,168.106 2.97,166.241 2.901,165.619C2.786,164.333 2.74,163.042 2.763,161.752C2.832,161.199 3.039,159.334 3.177,158.367C3.246,157.884 3.384,157.193 3.522,156.571C3.602,156.96 3.824,157.305 4.144,157.538C4.467,157.919 4.745,158.337 4.973,158.782C5.595,159.818 6.216,160.992 6.907,162.304C7.997,164.15 8.966,166.065 9.808,168.037C11.189,171.076 12.363,173.7 14.021,174.667L14.09,174.667C14.781,174.805 15.54,174.944 16.231,175.013C17.054,175.072 17.855,175.307 18.579,175.703L18.717,175.703C19.296,175.726 19.876,175.68 20.444,175.565C21.239,175.347 22.081,175.371 22.861,175.634L24.864,176.532L23.138,175.22C22.28,174.657 21.261,174.39 20.237,174.46C19.795,174.483 19.352,174.436 18.925,174.322C18.796,174.279 18.678,174.208 18.579,174.115L18.51,174.046C18.191,173.849 17.841,173.709 17.474,173.631L17.129,173.562L16.024,173.355C15.58,173.296 15.141,173.204 14.711,173.079C14.021,172.871 12.778,170.316 11.534,167.553C10.636,165.619 9.6,163.409 8.495,161.475C7.736,160.094 7.114,158.92 6.492,157.884L6.216,157.469C5.973,156.999 5.645,156.577 5.249,156.226C5.042,156.019 5.042,155.95 5.111,155.743C5.664,154.776 5.871,154.707 6.147,154.638C6.149,154.993 6.219,155.345 6.354,155.674C6.907,156.917 8.288,158.367 9.117,158.367C9.404,158.352 9.653,158.158 9.739,157.884L9.946,156.986C10.086,156.476 10.375,156.019 10.775,155.674C11.396,155.19 11.949,154.707 12.501,154.223L12.639,154.085L12.501,153.878C12.501,153.878 11.672,152.842 11.327,152.358C11.051,152.013 10.913,151.806 10.775,151.599C10.421,151.024 10.004,150.491 9.531,150.01L9.117,149.803C8.495,149.527 7.39,149.112 6.492,146.902C5.94,145.452 5.456,141.584 5.802,139.995C5.931,139.434 6.092,138.88 6.285,138.338C6.707,138.865 7.222,139.31 7.805,139.65C7.841,139.689 7.89,139.714 7.943,139.719C8.12,139.779 8.308,139.803 8.495,139.788C9.048,139.788 10.153,139.65 10.567,139.166C10.775,139.512 10.913,139.788 11.051,139.995C11.418,140.825 12.218,141.385 13.123,141.446C13.854,141.577 14.596,141.248 14.988,140.617C15.817,139.65 16.024,135.368 16.093,134.47L16.093,134.263L15.126,134.193L15.126,134.401C14.781,136.68 14.021,139.235 13.33,139.443C13.123,139.512 12.778,139.166 12.639,139.028C11.37,137.005 10.437,134.789 9.877,132.467C9.877,132.398 9.808,132.329 9.808,132.26C9.793,132.113 9.746,131.971 9.67,131.845C9.6,131.638 9.531,131.224 9.393,130.809C9.382,130.208 9.335,129.609 9.255,129.013C9.243,128.755 9.196,128.5 9.117,128.254C9.048,127.701 8.979,127.149 8.91,126.665C8.911,126.129 8.98,125.595 9.117,125.076L9.117,124.938L9.048,124.8L9.048,124.593L8.91,124.524C8.592,124.186 8.124,124.03 7.667,124.11L7.321,123.971L7.321,124.179L7.252,124.524C7.101,125.11 7.054,125.718 7.114,126.32C7.114,127.038 7.184,127.755 7.321,128.461C7.378,128.733 7.402,129.012 7.39,129.29L7.459,129.635C7.596,130.27 7.666,130.919 7.667,131.569L7.597,131.569L7.597,131.845C7.586,132.217 7.539,132.587 7.459,132.95C7.185,133.763 6.839,134.549 6.423,135.299C5.65,136.697 5.113,138.214 4.835,139.788C4.628,140.962 4.006,145.037 5.525,148.491C5.595,148.56 5.595,148.629 5.664,148.767C6.009,149.771 6.8,150.562 7.805,150.908C8.499,151.12 9.043,151.664 9.255,152.358C9.398,152.681 9.584,152.983 9.808,153.256C9.899,153.433 10.015,153.596 10.153,153.74C9.455,154.533 8.831,155.388 8.288,156.295C7.916,156.027 7.59,155.7 7.321,155.328C7.772,154.935 7.96,154.317 7.805,153.74C7.533,153.147 6.937,152.768 6.285,152.773L6.838,152.773C5.894,152.818 5.035,153.339 4.558,154.154C4.697,153.602 4.904,152.98 4.973,152.773C4.768,152.174 4.697,151.537 4.766,150.908C4.776,150.789 4.752,150.669 4.697,150.563C4.697,150.493 4.697,150.493 4.628,150.424L4.628,150.355C4.558,150.01 4.558,149.596 4.489,149.25C4.489,149.112 4.489,149.043 4.42,148.974C4.223,148.492 4.129,147.975 4.144,147.454C4.144,147.385 4.144,147.385 4.006,147.247C3.309,146.536 2.977,145.541 3.108,144.554C3.108,144.346 3.177,144.07 3.177,143.863L3.177,143.794C3.177,143.725 3.177,143.725 3.246,143.656L3.246,143.449C3.307,143.163 3.4,142.885 3.522,142.62L3.522,142.551C3.522,142.482 3.592,142.413 3.592,142.343C3.607,141.89 3.512,141.44 3.315,141.031L3.177,140.686C2.97,139.926 2.901,139.166 3.384,138.683C3.576,138.542 3.785,138.426 4.006,138.338C3.868,137.911 3.868,137.452 4.006,137.025C4.163,136.618 4.456,136.276 4.835,136.058C4.822,135.941 4.799,135.826 4.766,135.713L4.835,135.368C4.753,134.763 4.638,134.164 4.489,133.572C4.288,133.03 4.058,132.5 3.799,131.983C3.512,131.355 3.462,130.642 3.661,129.98C3.736,129.601 3.902,129.246 4.144,128.944L4.144,128.599C3.522,128.392 2.694,128.046 2.486,127.287C2.311,126.593 2.384,125.86 2.694,125.215C2.956,124.342 3.05,123.428 2.97,122.521C2.97,122.314 2.901,122.107 2.901,121.968L2.832,121.968L2.763,121.899C2.299,121.259 2.195,120.424 2.486,119.689L2.486,119.551C2.576,119.22 2.691,118.897 2.832,118.584C2.901,118.515 2.901,118.446 2.97,118.377L3.108,118.446C3.463,118.709 3.787,119.01 4.075,119.344C4.498,119.85 5.014,120.272 5.595,120.587C6.423,121.14 8.979,122.797 11.258,124.317L11.534,124.455L11.811,124.317C11.811,124.317 14.159,123.074 14.435,122.314C15.057,120.794 15.54,105.185 14.642,104.563C14.023,104.167 13.348,103.864 12.639,103.665C12.062,103.47 11.507,103.215 10.982,102.906C6.216,99.798 4.213,97.864 4.213,96.621C4.256,96.014 4.527,95.446 4.973,95.032L5.18,94.894L6.907,93.305C7.063,93.187 7.203,93.047 7.321,92.891C8.219,92.062 10.36,90.128 12.847,88.194C13.033,88.061 13.245,87.967 13.468,87.918C13.709,87.856 13.942,87.763 14.159,87.642L14.228,87.573L14.297,87.573L14.297,87.918C14.711,90.888 15.057,93.858 15.195,96.897L15.195,97.449C15.195,97.795 15.264,98.831 15.333,100.143C15.402,101.732 16.3,103.389 17.129,104.978C17.409,105.447 17.663,105.931 17.889,106.428C17.82,107.81 17.612,109.329 17.405,110.918C16.991,114.095 16.576,117.065 17.129,118.377C17.229,119.522 17.437,120.655 17.75,121.761C18.096,123.212 18.372,124.524 17.958,125.353L16.645,128.392L18.925,125.905C20.237,124.524 19.961,122.59 19.684,120.38C19.615,119.62 19.477,118.86 19.408,117.962L19.408,117.893C18.994,116.926 19.27,114.993 19.615,112.437C19.961,110.227 20.099,108.086 20.237,105.876L20.237,105.737L20.03,105.599C18.303,103.187 17.406,100.277 17.474,97.311L17.474,96.897C17.35,93.797 17.05,90.707 16.576,87.642C16.162,83.705 16.922,79.63 17.336,77.212C17.474,76.591 17.543,76.107 17.612,75.693C17.624,74.238 17.531,72.784 17.336,71.342L17.336,71.204C16.369,69.131 14.504,69.684 13.33,69.96L12.847,70.098L13.054,70.996L13.261,70.996C14.054,70.874 14.865,71.046 15.54,71.48L15.54,75.555C15.54,75.831 15.402,76.315 15.333,76.867C14.769,79.619 14.445,82.416 14.366,85.224L14.09,85.224L13.952,85.155C12.916,85.017 12.018,84.879 11.051,84.672C9.739,84.395 8.426,84.119 7.114,83.774C4.835,83.083 4.282,82.116 4.006,81.702C3.933,81.626 3.885,81.529 3.868,81.426C3.661,80.942 3.384,80.873 3.177,80.942C2.763,81.011 2.556,81.564 2.901,83.567L3.039,83.774C3.666,84.529 4.553,85.022 5.525,85.155C5.877,85.335 6.248,85.474 6.631,85.57C7.045,85.708 8.633,86.053 10.636,86.537C10.982,86.606 11.465,86.675 11.949,86.744L11.949,86.813C9.393,88.816 7.252,90.75 6.285,91.579L6.078,91.786L5.802,91.993C5.802,91.993 5.111,92.615 4.075,93.582C3.831,93.803 3.622,94.059 3.453,94.341C3.246,92.96 2.763,89.368 2.763,89.299L2.763,89.092C2.556,87.365 2.279,85.017 2.279,84.672C2.279,84.326 2.141,81.495 2.072,81.08C1.967,80.426 2.346,79.784 2.97,79.561C3.145,79.495 3.308,79.402 3.453,79.284C3.447,79.017 3.519,78.752 3.661,78.525L4.006,77.903L4.351,77.351C4.346,77.039 4.417,76.731 4.558,76.453C4.282,75.348 3.799,73.483 3.661,73.068C3.439,72.482 3.254,71.882 3.108,71.273L2.97,70.858C2.625,69.822 2.486,69.201 2.417,69.062C2.21,68.51 1.727,67.129 2.003,66.3C2.153,65.657 2.623,65.135 3.246,64.918L3.384,64.918C3.476,64.264 3.686,63.632 4.006,63.054L4.144,62.777C4.289,62.536 4.45,62.305 4.628,62.087C4.642,61.518 4.759,60.956 4.973,60.429C5.04,59.843 5.281,59.289 5.664,58.84C5.816,58.469 6.082,58.154 6.423,57.942C6.69,57.602 7.096,57.399 7.528,57.39C7.789,57.277 8.074,57.23 8.357,57.252L8.426,57.252C8.729,57.036 9.09,56.915 9.462,56.906L9.531,56.906C10.088,56.905 10.635,57.047 11.12,57.321C11.288,57.46 11.474,57.576 11.672,57.666L11.88,57.804C11.949,57.873 12.018,57.942 12.087,57.942L12.57,58.15L12.778,58.288C13.233,58.386 13.695,58.455 14.159,58.495L14.988,58.564C15.001,58.395 15.048,58.231 15.126,58.081L15.126,58.012C14.998,57.633 14.974,57.228 15.057,56.837C15.17,56.214 15.736,55.767 16.369,55.801L17.612,55.801C17.681,55.801 17.75,55.87 17.82,55.87L18.303,55.87C18.704,55.866 19.102,55.936 19.477,56.078C19.665,56.135 19.85,56.204 20.03,56.285L20.168,56.354C20.37,56.403 20.559,56.498 20.72,56.63L20.859,56.699C21.066,56.768 21.204,56.906 21.411,56.976C22.113,57.086 22.805,57.248 23.483,57.459C24.036,57.597 24.519,57.735 24.726,57.804L25.417,57.804C25.81,57.791 26.203,57.814 26.591,57.873C26.798,57.873 27.006,57.942 27.213,57.942L27.42,57.942C27.921,57.722 28.461,57.605 29.009,57.597L29.492,57.597C29.699,57.597 29.975,57.666 30.183,57.666L30.39,57.666C30.714,57.657 31.038,57.68 31.357,57.735L32.6,57.735C33.01,57.655 33.426,57.609 33.843,57.597C34.261,57.609 34.677,57.655 35.086,57.735C35.156,57.735 35.294,57.804 35.363,57.804L36.123,57.804C36.759,57.956 37.366,58.212 37.918,58.564L38.056,58.633C38.532,58.843 38.975,59.122 39.369,59.462L39.438,59.462C40.111,59.269 40.809,59.175 41.51,59.186C41.904,59.198 42.297,59.244 42.684,59.324C43.039,59.408 43.386,59.523 43.72,59.669C43.789,59.669 43.858,59.738 43.927,59.738L43.996,59.738C44.494,59.776 44.926,60.1 45.101,60.567C45.159,60.816 45.182,61.072 45.17,61.327C45.181,61.424 45.156,61.522 45.101,61.603C45.225,61.657 45.323,61.756 45.378,61.879C45.54,62.126 45.566,62.438 45.447,62.708C45.503,62.863 45.527,63.027 45.516,63.192L45.516,63.33C45.717,63.527 45.796,63.818 45.723,64.09C45.779,64.196 45.803,64.316 45.792,64.435C45.848,64.565 45.872,64.708 45.861,64.849C45.87,65.302 45.775,65.751 45.585,66.162C45.585,66.231 45.516,66.3 45.447,66.369C45.801,67.224 45.85,68.176 45.585,69.062C45.488,69.379 45.348,69.681 45.17,69.96C45.182,70.261 45.159,70.563 45.101,70.858C45.701,71.301 45.952,72.083 45.723,72.792L45.723,73.276C45.792,73.849 45.792,74.429 45.723,75.002L45.723,75.624C45.588,75.953 45.518,76.304 45.516,76.66C45.527,77.213 45.504,77.767 45.447,78.318C45.493,78.802 45.469,79.29 45.378,79.768L45.309,80.044C45.151,80.735 44.92,81.406 44.618,82.047L44.48,82.254C44.076,82.838 43.926,83.561 44.065,84.257C44.152,84.501 44.268,84.732 44.411,84.948C45.36,85.7 46.197,86.584 46.897,87.573C47.381,88.413 47.796,89.291 48.14,90.197C48.292,90.641 48.339,91.114 48.278,91.579ZM35.086,163.685C34.81,163.755 32.462,164.031 31.15,161.061C31.096,160.937 31.027,160.821 30.942,160.716C30.859,160.572 30.766,160.434 30.666,160.301C32.324,158.92 34.12,157.4 35.501,156.157C35.643,156.611 35.828,157.05 36.053,157.469C36.4,157.979 36.592,158.579 36.606,159.196L36.606,159.334C37.28,160.952 36.621,162.839 35.086,163.685ZM7.667,136.887C7.805,136.749 7.943,136.542 8.081,136.404C8.508,135.968 8.879,135.481 9.186,134.953C9.529,135.972 9.944,136.964 10.429,137.923C10.36,137.923 10.291,137.992 10.222,138.061L10.153,138.13C9.727,138.269 9.267,138.269 8.841,138.13C8.44,138.062 8.115,137.764 8.012,137.371L8.012,137.302C7.89,137.17 7.774,137.031 7.667,136.887ZM3.522,110.434L3.522,108.155C3.522,106.014 3.522,104.771 3.453,104.494C3.455,104.216 3.432,103.939 3.384,103.665C3.384,103.389 3.315,102.975 3.315,102.629L3.246,101.732C3.177,100.834 3.108,99.729 3.039,98.969C4.42,101.593 8.426,103.942 9.946,104.84C10.089,104.923 10.228,105.015 10.36,105.116C11.015,105.529 11.709,105.876 12.432,106.152C12.761,106.273 13.084,106.412 13.399,106.566C13.399,107.05 13.33,108.707 13.33,110.089C13.399,111.954 13.192,120.242 13.054,121.761C12.847,121.899 12.294,122.176 11.742,122.452L6.838,119.275L6.216,118.722C5.488,118.204 4.667,117.829 3.799,117.617L3.246,117.479L3.039,117.065C2.982,116.44 3.028,115.809 3.177,115.2L3.177,115.131C3.246,114.716 3.592,110.987 3.522,110.434Z" style="fill-rule:nonzero;"/>
            </g>
            <g transform="matrix(0.875748,0,0,0.875748,30.1687,-36.9575)">
                <path d="M11.327,78.387L11.189,78.318C10.222,77.972 8.633,73.206 9.186,68.924C9.6,67.681 9.048,66.507 7.805,65.609C7.348,65.282 6.832,65.048 6.285,64.918C5.805,64.563 5.225,64.369 4.628,64.366L4.282,64.435L4.144,65.126L4.282,65.264C4.282,65.333 4.282,65.333 4.351,65.402C4.568,66.007 5.015,66.504 5.595,66.783L5.802,66.783C7.045,67.129 7.597,67.474 7.39,68.648C7.207,69.79 7.16,70.949 7.252,72.101C7.183,73.068 8.426,78.801 10.084,79.768C10.498,80.182 10.913,80.528 11.327,80.873C11.62,81.083 11.897,81.313 12.156,81.564L13.399,82.807L12.985,81.149C12.707,80.237 12.208,79.407 11.534,78.732L11.327,78.387Z" style="fill-rule:nonzero;"/>
            </g>
            <g transform="matrix(0.875748,0,0,0.875748,30.1687,-36.9575)">
                <path d="M19.615,85.846C19.683,85.052 19.095,84.34 18.303,84.257C18.026,84.234 17.767,84.407 17.681,84.672C17.35,85.317 17.324,86.078 17.612,86.744C17.794,87.029 18.103,87.209 18.441,87.227L18.51,87.227C19.141,87.158 19.623,86.619 19.623,85.985C19.623,85.938 19.62,85.892 19.615,85.846Z" style="fill-rule:nonzero;"/>
            </g>
            <g transform="matrix(0.875748,0,0,0.875748,30.1687,-36.9575)">
                <path d="M18.303,66.645L18.441,66.714C19.201,66.921 19.892,67.198 20.375,67.336C20.574,67.414 20.783,67.461 20.997,67.474C21.21,67.461 21.42,67.414 21.618,67.336L22.033,67.059C22.102,66.99 22.723,66.645 23.345,66.3L24.519,65.609C25.624,65.195 26.936,63.813 27.075,62.639C27.162,62.112 26.948,61.579 26.522,61.258C25.822,60.64 24.896,60.34 23.967,60.429L23.621,60.429L21.964,60.36L23.345,61.327C23.69,61.534 23.967,61.741 24.243,61.879C24.637,62.092 25.008,62.347 25.348,62.639C25.21,62.846 24.588,63.537 21.618,65.264C21.416,65.346 21.229,65.463 21.066,65.609C21.013,65.616 20.965,65.641 20.928,65.678C20.444,65.54 19.753,65.264 18.994,65.056L18.786,64.987C18.773,64.797 18.727,64.609 18.648,64.435C18.596,64.38 18.57,64.304 18.579,64.228L18.579,64.159C18.373,63.798 18.143,63.452 17.889,63.123L17.75,62.984C17.681,62.777 17.612,62.501 17.543,62.294C17.34,61.839 17.268,61.337 17.336,60.843L17.681,59.186L16.507,60.429C15.678,61.396 15.678,62.363 15.955,63.606C16.09,63.897 16.252,64.174 16.438,64.435L16.853,65.056C16.922,65.195 16.922,65.264 16.991,65.402C17.129,66.092 17.405,66.852 18.303,66.645Z" style="fill-rule:nonzero;"/>
            </g>
            <g transform="matrix(0.875748,0,0,0.875748,30.1687,-36.9575)">
                <path d="M20.72,101.593C21.351,101.524 21.833,100.985 21.833,100.351C21.833,100.304 21.831,100.258 21.825,100.212C21.893,99.419 21.305,98.707 20.513,98.623C20.223,98.618 19.954,98.779 19.822,99.038C19.489,99.682 19.463,100.445 19.753,101.11C19.923,101.407 20.24,101.592 20.582,101.593L20.72,101.593Z" style="fill-rule:nonzero;"/>
            </g>
            <g transform="matrix(0.875748,0,0,0.875748,30.1687,-36.9575)">
                <path d="M20.099,90.543C20.323,90.469 20.518,90.323 20.651,90.128C20.708,90.377 20.732,90.633 20.72,90.888C20.72,90.957 20.72,90.957 20.651,91.095C20.375,92.062 19.546,94.548 21.273,96.482L21.618,96.828C21.961,97.494 22.559,97.992 23.276,98.209L24.243,98.485L23.828,97.518C23.689,97.137 23.478,96.785 23.207,96.482L23.138,96.482C22.709,95.954 22.466,95.298 22.447,94.618L22.447,94.479C22.447,94.203 22.585,93.374 22.861,93.236C23,93.167 23.207,93.236 23.483,93.374L23.967,93.651L24.174,93.098C24.255,92.869 24.229,92.616 24.105,92.407C23.898,92.048 23.545,91.796 23.138,91.717C22.668,91.654 22.198,91.837 21.895,92.2C21.964,91.855 22.033,91.579 22.102,91.164L22.102,91.026C22.323,90.244 22.17,89.401 21.687,88.747C21.162,88.001 20.184,87.714 19.339,88.056C18.914,88.194 18.613,88.577 18.579,89.023C18.472,89.381 18.55,89.77 18.786,90.059C19.063,90.498 19.604,90.697 20.099,90.543Z" style="fill-rule:nonzero;"/>
            </g>
            <g transform="matrix(0.875748,0,0,0.875748,30.1687,-36.9575)">
                <path d="M22.102,112.299C21.832,112.303 21.588,112.466 21.48,112.713C21.19,113.379 21.215,114.141 21.549,114.785C21.739,115.052 22.05,115.208 22.378,115.2L22.516,115.2C23.185,115.065 23.642,114.426 23.552,113.749C23.499,112.975 22.876,112.352 22.102,112.299Z" style="fill-rule:nonzero;"/>
            </g>
            <g transform="matrix(0.875748,0,0,0.875748,30.1687,-36.9575)">
                <path d="M10.015,147.178C9.952,146.999 9.906,146.814 9.877,146.626C9.808,146.349 9.393,144.208 9.393,143.932C9.393,143.794 9.117,141.722 9.117,141.169C9.119,141.146 9.12,141.123 9.12,141.1C9.12,140.721 8.809,140.41 8.43,140.41C8.429,140.41 8.427,140.41 8.426,140.41C8.15,140.41 7.805,140.755 7.874,141.307C7.922,142.258 8.037,143.205 8.219,144.139C8.303,145.123 8.488,146.095 8.772,147.04C8.859,147.409 9.051,147.745 9.324,148.007L10.636,149.665L10.291,147.731C10.159,147.57 10.064,147.381 10.015,147.178Z" style="fill-rule:nonzero;"/>
            </g>
            <g transform="matrix(0.875748,0,0,0.875748,30.1687,-36.9575)">
                <path d="M12.916,147.869C12.778,147.662 12.708,147.385 12.57,147.178L12.363,146.833C11.828,144.969 11.39,143.079 11.051,141.169C10.982,140.548 10.636,140.41 10.36,140.41C10.084,140.41 9.739,140.686 9.808,141.307C9.862,142.312 10.024,143.308 10.291,144.277C10.5,145.398 10.848,146.489 11.327,147.524C11.504,147.861 11.766,148.147 12.087,148.352L13.883,149.941L12.916,147.869Z" style="fill-rule:nonzero;"/>
            </g>
            <g transform="matrix(0.875748,0,0,0.875748,30.1687,-36.9575)">
                <path d="M38.056,76.798L37.435,77.351L38.195,77.627L38.747,77.834C39.012,77.957 39.29,78.05 39.576,78.11C40.583,78.296 41.394,79.053 41.648,80.044C41.794,80.784 41.645,81.553 41.234,82.185C41.178,82.238 41.102,82.264 41.026,82.254L40.888,82.185L40.75,82.254C40.264,82.412 39.817,82.671 39.438,83.014L38.816,83.567L39.576,83.843C39.933,83.975 40.304,84.068 40.681,84.119C40.913,84.131 41.146,84.107 41.372,84.05L41.441,84.05C42.299,83.769 42.953,83.062 43.167,82.185C43.363,81.464 43.386,80.707 43.237,79.975C43.102,79.128 42.689,78.35 42.062,77.765C41.439,77.16 40.682,76.71 39.852,76.453C39.247,76.143 38.503,76.286 38.056,76.798Z" style="fill-rule:nonzero;"/>
            </g>
            <g transform="matrix(0.875748,0,0,0.875748,30.1687,-36.9575)">
                <path d="M39.714,112.99C39.714,113.68 40.128,114.233 40.612,114.233C41.095,114.233 41.51,113.68 41.51,112.99C41.51,112.299 41.095,111.746 40.612,111.746C40.128,111.746 39.714,112.299 39.714,112.99Z" style="fill-rule:nonzero;"/>
            </g>
            <g transform="matrix(0.875748,0,0,0.875748,30.1687,-36.9575)">
                <path d="M39.162,104.632C38.611,104.768 38.222,105.266 38.222,105.833C38.222,105.94 38.236,106.048 38.264,106.152C38.409,106.573 38.74,106.904 39.162,107.05C39.645,107.05 40.059,106.497 40.059,105.807C40.059,105.116 39.714,104.632 39.162,104.632Z" style="fill-rule:nonzero;"/>
            </g>
            <g transform="matrix(0.875748,0,0,0.875748,30.1687,-36.9575)">
                <path d="M39.852,108.224C39.748,108.197 39.642,108.184 39.534,108.184C38.83,108.184 38.25,108.764 38.25,109.469C38.25,110.173 38.83,110.753 39.534,110.753C40.239,110.753 40.819,110.173 40.819,109.469C40.819,109.468 40.819,109.468 40.819,109.467C40.892,108.862 40.457,108.302 39.852,108.224Z" style="fill-rule:nonzero;"/>
            </g>
            <g transform="matrix(0.875748,0,0,0.875748,30.1687,-36.9575)">
                <path d="M11.603,177.706C11.436,177.463 11.252,177.232 11.051,177.016C9.544,174.865 8.205,172.602 7.045,170.247C6.854,169.919 6.622,169.618 6.354,169.349L6.009,169.004L5.111,167.899L5.18,169.28C5.186,169.93 5.404,170.561 5.802,171.076C6.234,171.837 6.626,172.621 6.976,173.424C7.183,173.838 7.39,174.322 7.597,174.667C8.3,175.888 9.109,177.043 10.015,178.121C10.438,178.613 11.029,178.933 11.672,179.019L13.054,179.226L12.087,178.19C11.893,178.065 11.728,177.9 11.603,177.706Z" style="fill-rule:nonzero;"/>
            </g>
            <g transform="matrix(0.875748,0,0,0.875748,30.1687,-36.9575)">
                <path d="M32.669,68.648C32.807,68.717 32.876,68.786 33.014,68.855C33.766,69.331 34.403,69.968 34.879,70.72C35.344,71.611 35.514,72.627 35.363,73.621L35.363,73.897C35.363,74.45 35.294,74.726 35.086,74.933L34.948,75.071L34.948,75.14L34.741,75.279C34.258,75.486 33.36,76.038 33.981,77.765C36.606,82.047 36.951,88.332 36.744,90.543C36.744,91.993 36.675,93.236 36.675,94.41C36.675,96.206 36.606,97.795 36.537,99.729L36.537,99.936L37.435,100.074L37.504,99.867C38.189,96.806 38.537,93.679 38.54,90.543L38.54,90.335C38.54,88.471 38.471,86.606 38.333,84.741L38.264,84.395C38.192,83.008 37.789,81.659 37.089,80.459L37.02,80.32C36.767,79.94 36.58,79.52 36.468,79.077C36.66,78.257 36.364,77.396 35.708,76.867L35.846,76.729C36.261,76.315 37.642,74.864 37.228,73.621C37.359,72.307 37.094,70.984 36.468,69.822C35.859,68.799 35.004,67.944 33.981,67.336C33.912,67.198 33.705,67.129 33.429,66.99C32.62,66.731 31.886,66.281 31.288,65.678C30.757,64.911 30.513,63.982 30.597,63.054C30.597,62.915 30.666,62.915 30.735,62.915C31.011,62.777 31.84,62.915 32.876,63.468L32.945,63.468C33.421,63.604 33.82,63.928 34.05,64.366C34.589,65.244 35.462,65.868 36.468,66.092L36.606,66.092C37.277,65.985 37.915,65.725 38.471,65.333C38.662,65.192 38.871,65.076 39.092,64.987C39.257,65.72 39.588,66.406 40.059,66.99C40.151,67.546 40.104,68.115 39.921,68.648C39.828,68.938 39.661,69.2 39.438,69.408C39.162,69.477 39.023,69.753 38.747,70.306L38.885,70.927C38.855,71.644 38.786,72.359 38.678,73.068L38.402,75.071L39.507,73.414C40.039,72.719 40.416,71.918 40.612,71.065L40.612,70.789L40.75,70.72C41.231,70.321 41.59,69.794 41.786,69.201C42.072,68.331 42.12,67.401 41.924,66.507C41.789,66.017 41.579,65.552 41.303,65.126C41.303,65.056 41.234,65.056 41.234,64.987L41.234,64.918C41.234,64.849 41.234,64.849 41.303,64.78C41.51,64.159 41.441,63.606 40.543,62.777L40.336,62.57L40.059,62.639C39.37,62.863 38.718,63.189 38.125,63.606C37.614,63.941 37.055,64.197 36.468,64.366C36.244,64.151 36.036,63.921 35.846,63.675L35.777,63.606C35.252,62.813 34.508,62.19 33.636,61.81C33.153,61.534 31.426,60.705 30.114,61.258C29.476,61.549 28.997,62.104 28.801,62.777C28.615,64.218 28.985,65.676 29.837,66.852C30.606,67.691 31.583,68.31 32.669,68.648Z" style="fill-rule:nonzero;"/>
            </g>
            <g transform="matrix(0.875748,0,0,0.875748,30.1687,-36.9575)">
                <path d="M23.897,105.668C24.119,104.886 23.966,104.044 23.483,103.389C22.936,102.674 21.982,102.393 21.135,102.698C20.71,102.837 20.409,103.22 20.375,103.665C20.257,104.034 20.366,104.44 20.651,104.701C20.934,105.047 21.401,105.184 21.825,105.047C22.05,104.973 22.244,104.827 22.378,104.632C22.435,104.881 22.458,105.137 22.447,105.392C22.439,105.465 22.415,105.536 22.378,105.599C22.102,106.566 21.273,109.053 23,110.987L23.345,111.332C23.687,111.998 24.286,112.497 25.003,112.713L25.97,112.99L25.555,112.023C25.389,111.659 25.155,111.331 24.864,111.056C24.436,110.527 24.193,109.871 24.174,109.191L24.174,109.053C24.174,108.776 24.312,107.948 24.588,107.81C24.726,107.74 24.934,107.81 25.21,107.948L25.693,108.224L25.9,107.671C25.981,107.443 25.956,107.189 25.831,106.981C25.625,106.621 25.271,106.369 24.864,106.29C24.395,106.227 23.925,106.41 23.621,106.773C23.69,106.497 23.759,106.152 23.828,105.737L23.897,105.668Z" style="fill-rule:nonzero;"/>
            </g>
            <g transform="matrix(0.875748,0,0,0.875748,30.1687,-36.9575)">
                <path d="M25.624,75.14C25.624,75.14 24.45,73.206 22.931,72.654C21.997,72.467 21.027,72.722 20.306,73.345L19.339,74.588L20.859,74.104C21.315,73.987 21.797,74.011 22.24,74.173C22.95,74.467 23.57,74.944 24.036,75.555C24.513,76.467 24.66,77.517 24.45,78.525L24.312,79.768L24.934,79.215C24.934,79.675 24.815,80.128 24.588,80.528C24.083,81.014 23.295,81.073 22.723,80.666L21.825,80.113L21.964,81.149C22.056,81.587 22.301,81.979 22.654,82.254C22.958,82.458 23.331,82.533 23.69,82.462C24.458,82.36 25.167,81.993 25.693,81.426C26.289,80.61 26.537,79.592 26.384,78.594C26.332,78.262 26.188,77.951 25.97,77.696C26.164,76.83 26.041,75.923 25.624,75.14Z" style="fill-rule:nonzero;"/>
            </g>
            <g transform="matrix(0.875748,0,0,0.875748,30.1687,-36.9575)">
                <path d="M29.561,90.75C29.561,90.75 28.87,88.609 27.42,87.78C26.556,87.373 25.544,87.425 24.726,87.918L23.552,88.885L25.141,88.747C25.632,88.746 26.113,88.89 26.522,89.161C27.164,89.582 27.669,90.183 27.973,90.888C28.249,91.895 28.176,92.967 27.765,93.927L27.282,95.101L28.042,94.687C27.952,95.165 27.71,95.601 27.351,95.93C26.778,96.332 25.98,96.209 25.555,95.654L24.795,94.894L24.726,95.93C24.707,96.393 24.883,96.844 25.21,97.173C25.545,97.49 25.992,97.663 26.453,97.657C26.731,97.668 27.009,97.645 27.282,97.587C27.678,97.499 28.053,97.334 28.387,97.104C29.152,96.436 29.624,95.493 29.699,94.479C29.697,94.124 29.627,93.772 29.492,93.443C29.792,92.574 29.816,91.633 29.561,90.75Z" style="fill-rule:nonzero;"/>
            </g>
            <g transform="matrix(0.875748,0,0,0.875748,30.1687,-36.9575)">
                <path d="M31.011,105.047C30.873,104.563 30.252,102.698 29.078,101.939C28.248,101.469 27.237,101.443 26.384,101.87L25.072,102.837L26.66,102.768C27.139,102.78 27.6,102.95 27.973,103.251C28.601,103.728 29.08,104.375 29.354,105.116C29.555,106.117 29.434,107.157 29.009,108.086L28.456,109.26L29.216,108.915C29.089,109.375 28.824,109.785 28.456,110.089C27.847,110.451 27.049,110.267 26.66,109.674L25.97,108.846L25.831,109.882C25.772,110.326 25.897,110.775 26.177,111.125C26.535,111.543 27.082,111.751 27.627,111.677C27.837,111.689 28.047,111.665 28.249,111.608C28.641,111.543 29.016,111.403 29.354,111.194C30.167,110.577 30.692,109.653 30.804,108.638C30.827,108.287 30.78,107.935 30.666,107.602C31.097,106.824 31.22,105.912 31.011,105.047Z" style="fill-rule:nonzero;"/>
            </g>
            <g transform="matrix(0.875748,0,0,0.875748,30.1687,-36.9575)">
                <path d="M33.153,96.413C33.084,95.654 32.945,95.032 32.945,94.756L32.876,94.341C32.876,94.065 32.807,93.512 32.738,92.822C32.6,91.164 32.324,88.332 31.84,85.362C31.219,81.08 29.285,76.798 28.318,74.795L27.973,74.104C27.696,73.206 27.558,72.654 27.42,72.24C27.166,71.233 26.795,70.259 26.315,69.339L25.624,67.681L25.9,69.477C26.027,70.137 26.05,70.813 25.97,71.48C25.9,72.17 25.9,72.723 26.453,74.657C26.522,74.864 26.66,75.14 26.798,75.486C27.765,77.627 29.561,81.564 30.183,85.57C30.597,88.54 30.873,91.44 31.081,93.167C31.083,93.68 31.153,94.191 31.288,94.687C31.357,94.825 31.357,95.308 31.495,96.413C31.702,98.071 32.117,100.834 32.462,103.735C32.519,106.111 32.404,108.489 32.117,110.849C31.896,112.38 31.827,113.93 31.909,115.476C32.045,117.793 32.322,120.1 32.738,122.383L33.222,125.007L33.429,123.143C33.716,120.551 33.762,117.938 33.567,115.338C33.464,113.93 33.533,112.515 33.774,111.125C34.062,108.603 34.177,106.065 34.12,103.527C33.774,100.765 33.36,98.14 33.153,96.413Z" style="fill-rule:nonzero;"/>
            </g>
            <g transform="matrix(0.875748,0,0,0.875748,30.1687,-36.9575)">
                <path d="M20.72,79.077L21.273,79.215L21.342,78.663C21.381,78.413 21.305,78.159 21.135,77.972C20.865,77.665 20.475,77.489 20.066,77.489C19.69,77.489 19.329,77.638 19.063,77.903C18.527,78.692 18.305,79.653 18.441,80.597C18.579,81.495 19.477,83.083 20.168,83.359C20.419,83.573 20.736,83.695 21.066,83.705L21.411,83.705L22.447,83.774L21.895,82.945C21.675,82.598 21.394,82.294 21.066,82.047L20.928,81.978C20.437,81.514 20.1,80.912 19.961,80.251C19.892,79.492 19.961,79.077 20.099,78.939C20.31,78.966 20.518,79.012 20.72,79.077Z" style="fill-rule:nonzero;"/>
            </g>
            <g transform="matrix(0.875748,0,0,0.875748,30.1687,-36.9575)">
                <path d="M23.967,123.281C24.036,123.004 24.243,122.245 24.519,122.107C24.657,122.038 24.864,122.176 25.141,122.383L25.555,122.728L25.831,122.245C25.956,122.036 25.981,121.783 25.9,121.554C25.746,121.153 25.414,120.847 25.003,120.725C24.547,120.6 24.057,120.703 23.69,121.001C23.828,120.725 23.897,120.38 24.036,120.035L24.105,119.965C24.432,119.212 24.407,118.35 24.036,117.617C23.633,116.801 22.711,116.368 21.825,116.581C21.399,116.675 21.055,116.992 20.928,117.41C20.742,117.762 20.769,118.189 20.997,118.515C21.25,118.863 21.674,119.049 22.102,118.999C22.35,118.984 22.579,118.856 22.723,118.653C22.769,118.908 22.745,119.171 22.654,119.413C22.654,119.482 22.585,119.551 22.516,119.62C22.102,120.518 20.928,122.866 22.309,125.007L22.585,125.422C22.786,126.169 23.322,126.781 24.036,127.079L24.934,127.494L24.726,126.527C24.637,126.131 24.473,125.756 24.243,125.422L24.174,125.353C23.817,124.776 23.693,124.084 23.828,123.419L23.967,123.281Z" style="fill-rule:nonzero;"/>
            </g>
            <g transform="matrix(0.875748,0,0,0.875748,30.1687,-36.9575)">
                <path d="M29.699,117.203C28.929,116.62 27.915,116.464 27.006,116.788L25.624,117.548L27.144,117.755C27.622,117.845 28.058,118.087 28.387,118.446C28.93,118.991 29.292,119.691 29.423,120.449C29.435,121.476 29.147,122.484 28.594,123.35L27.903,124.386L28.732,124.179C28.551,124.611 28.236,124.974 27.834,125.215C27.188,125.474 26.441,125.205 26.108,124.593L25.486,123.695L25.21,124.731C25.073,125.177 25.149,125.662 25.417,126.043C25.85,126.627 26.559,126.942 27.282,126.872C27.491,126.883 27.701,126.86 27.903,126.803C28.12,126.766 28.329,126.696 28.525,126.596C29.408,126.112 30.057,125.288 30.321,124.317C30.39,123.975 30.39,123.623 30.321,123.281C30.88,122.525 31.15,121.594 31.081,120.656C31.084,119.37 30.589,118.132 29.699,117.203Z" style="fill-rule:nonzero;"/>
            </g>
            <g transform="matrix(0.875748,0,0,0.875748,30.1687,-36.9575)">
                <path d="M20.375,148.421L20.306,148.214C20.165,147.245 19.539,146.411 18.648,146.004L18.786,145.935L18.51,145.935C18.238,145.866 17.953,145.866 17.681,145.935C16.369,145.866 15.471,146.695 14.988,148.352C14.768,150.051 14.792,151.772 15.057,153.463C15.126,154.552 15.623,155.57 16.438,156.295L16.507,156.295C16.962,156.507 17.456,156.625 17.958,156.641L18.027,156.641C18.124,156.651 18.222,156.626 18.303,156.571C19.791,156.23 20.873,154.921 20.928,153.394C21.021,151.718 20.835,150.037 20.375,148.421ZM18.441,151.737C18.579,151.944 19.132,152.911 19.132,152.911L19.546,153.532C19.498,154.266 19.003,154.898 18.303,155.121L18.303,154.983C18.303,154.776 18.165,153.671 18.165,153.671L18.027,152.358C17.973,152.106 17.825,151.883 17.612,151.737L17.405,151.599L17.267,151.737C17.078,151.915 16.977,152.168 16.991,152.427C16.991,152.635 17.129,153.74 17.129,153.74C17.129,153.74 17.267,154.845 17.267,155.052L17.267,155.121L17.198,155.052C16.666,154.579 16.363,153.899 16.369,153.187C16.173,151.629 16.15,150.054 16.3,148.491L16.369,148.283C16.507,147.462 16.983,146.735 17.681,146.28C18.441,146.557 18.579,147.04 18.786,147.869L18.994,148.491L19.063,148.767C19.33,149.666 19.492,150.593 19.546,151.529C19.455,151.429 19.384,151.312 19.339,151.184C19.178,150.965 18.92,150.837 18.648,150.839L18.441,150.77L18.372,150.977C18.253,151.223 18.279,151.516 18.441,151.737Z" style="fill-rule:nonzero;"/>
            </g>
            <g transform="matrix(0.875748,0,0,0.875748,30.1687,-36.9575)">
                <path d="M32.807,142.896C33.106,141.388 32.861,139.821 32.117,138.476L32.048,138.338C31.761,137.718 31.363,137.156 30.873,136.68C30.378,136.294 29.697,136.239 29.147,136.542C29.043,136.604 28.921,136.629 28.801,136.611L28.663,136.611C27.506,136.801 26.387,137.174 25.348,137.716C25.076,137.77 24.845,137.949 24.726,138.199C24.561,138.61 24.613,139.078 24.864,139.443L24.934,139.581L25.072,139.65C25.348,139.788 25.693,139.926 25.97,140.064C26.453,140.271 26.936,140.479 27.351,140.686C27.778,140.848 28.125,141.17 28.318,141.584C28.732,142.689 28.249,144.623 27.282,146.142C25.9,148.698 24.588,151.737 25.21,154.568C25.624,155.812 27.627,156.848 27.973,157.055L28.18,157.193L28.663,156.364L28.456,156.226C27.765,155.812 26.729,154.914 26.729,154.223C26.315,152.427 26.936,150.079 28.663,146.971C29.885,145.304 30.338,143.191 29.906,141.169C29.692,140.292 29.038,139.586 28.18,139.304C27.765,139.097 27.351,138.89 27.006,138.752C27.746,138.481 28.509,138.273 29.285,138.13L29.354,138.061C29.526,137.917 29.758,137.865 29.975,137.923C30.252,137.992 30.528,138.476 30.873,139.166C31.472,140.237 31.668,141.487 31.426,142.689C31.278,144.294 31.442,145.912 31.909,147.454C32.255,148.547 32.395,149.695 32.324,150.839C31.84,152.773 29.354,154.361 29.354,154.43L29.147,154.568L29.561,155.397L29.699,155.19C29.837,155.121 32.807,153.947 33.705,151.115L33.705,151.046C33.788,149.647 33.624,148.244 33.222,146.902C32.804,145.611 32.663,144.246 32.807,142.896Z" style="fill-rule:nonzero;"/>
            </g>
            <g transform="matrix(0.875748,0,0,0.875748,30.1687,-36.9575)">
                <path d="M23.621,149.043C23.414,146.764 23.138,144.83 22.654,144.001C22.812,143.399 23.044,142.819 23.345,142.274L24.243,140.41L22.654,141.515L22.309,141.722C21.394,142.183 20.808,143.115 20.789,144.139L20.789,144.346L20.928,144.485C21.342,144.968 21.618,147.593 21.756,149.043C21.895,150.632 21.964,151.115 22.171,151.391C22.447,152.358 22.516,156.71 21.618,157.124L21.48,157.193L21.411,157.331C20.928,158.298 20.444,159.127 20.789,160.37L21.411,162.097L21.825,160.508C21.964,160.105 22.174,159.731 22.447,159.403C22.585,159.196 22.792,158.851 23,158.574C24.036,157.815 24.243,155.466 24.243,153.602C24.243,151.46 23.967,150.908 23.828,150.77C23.759,150.424 23.69,149.665 23.621,149.043Z" style="fill-rule:nonzero;"/>
            </g>
            <g transform="matrix(0.875748,0,0,0.875748,30.1687,-36.9575)">
                <path d="M41.648,115.614C41.251,115.663 40.95,116.003 40.95,116.403C40.95,116.439 40.952,116.476 40.957,116.512C41.072,116.752 41.315,116.905 41.581,116.905C41.959,116.905 42.271,116.593 42.271,116.214C42.271,116.199 42.271,116.183 42.27,116.167C42.209,115.865 41.954,115.639 41.648,115.614Z" style="fill-rule:nonzero;"/>
            </g>
            <g transform="matrix(0.875748,0,0,0.875748,30.1687,-36.9575)">
                <path d="M42.615,86.744C41.89,86.342 41.014,86.317 40.267,86.675L39.369,87.02L40.267,87.504C40.506,87.626 40.736,87.765 40.957,87.918C41.264,88.128 41.588,88.313 41.924,88.471C42.679,88.756 43.313,89.293 43.72,89.99C43.96,90.357 44.035,90.808 43.927,91.233C43.651,92.131 43.098,93.236 42.408,93.512C42.198,93.65 41.926,93.65 41.717,93.512L41.441,93.512C40.774,93.51 40.114,93.651 39.507,93.927L38.54,94.272L39.438,94.756C40.05,95.167 40.772,95.384 41.51,95.377L41.717,95.377C43.816,95.353 45.582,93.737 45.792,91.648C46.047,90.659 45.816,89.607 45.17,88.816C44.433,87.995 43.57,87.296 42.615,86.744Z" style="fill-rule:nonzero;"/>
            </g>
            <g transform="matrix(0.875748,0,0,0.875748,30.1687,-36.9575)">
                <path d="M17.75,147.454C17.129,147.316 16.369,148.421 16.714,149.388C17.06,150.355 17.958,150.424 18.372,149.734C18.786,149.043 18.648,147.662 17.75,147.454Z" style="fill-rule:nonzero;"/>
            </g>
            <g transform="matrix(0.875748,0,0,0.875748,30.1687,-36.9575)">
                <path d="M42.062,118.515C41.972,118.684 41.948,118.881 41.993,119.068C42.045,119.21 42.142,119.331 42.27,119.413C42.325,119.466 42.401,119.491 42.477,119.482C42.573,119.485 42.669,119.461 42.753,119.413C42.9,119.335 43.02,119.214 43.098,119.068C43.188,118.923 43.213,118.748 43.167,118.584C43.162,118.405 43.055,118.243 42.891,118.17C42.762,118.101 42.606,118.101 42.477,118.17C42.31,118.245 42.167,118.365 42.062,118.515Z" style="fill-rule:nonzero;"/>
            </g>
            <g transform="matrix(0.875748,0,0,0.875748,30.1687,-36.9575)">
                <path d="M40.75,135.575C40.079,135.23 39.28,135.23 38.609,135.575C37.278,136.153 36.301,137.335 35.984,138.752C35.925,139.629 35.972,140.51 36.123,141.377L36.192,141.584C36.33,141.998 36.192,146.211 35.846,146.971C35.711,147.348 35.641,147.745 35.639,148.145C35.627,148.449 35.581,148.75 35.501,149.043L35.156,150.286L36.261,149.527C36.953,149.023 37.443,148.288 37.642,147.454C38.056,146.557 38.264,141.86 38.056,141.238C37.987,140.479 37.918,139.719 37.918,139.028C38.109,138.281 38.612,137.651 39.3,137.302L39.921,137.094C40.059,137.025 40.336,136.887 40.474,136.956L41.303,137.992L41.303,136.68C41.325,136.241 41.115,135.821 40.75,135.575Z" style="fill-rule:nonzero;"/>
            </g>
            <g transform="matrix(0.875748,0,0,0.875748,30.1687,-36.9575)">
                <path d="M42.477,121.485C41.954,121.14 41.273,121.14 40.75,121.485L39.231,122.383L41.095,122.383C41.4,122.334 41.71,122.438 41.924,122.659C42.27,123.143 41.993,124.248 41.786,125.353C41.713,125.6 41.666,125.855 41.648,126.113L41.579,126.389C41.283,127.404 40.914,128.397 40.474,129.359C40.405,129.566 40.267,129.704 40.198,129.911L39.783,129.497C39.369,129.082 38.954,128.668 38.678,128.323C37.435,125.629 36.606,118.515 36.675,115.269C37.435,111.677 37.849,107.464 37.573,106.152C37.568,105.665 37.522,105.18 37.435,104.701C37.377,104.313 37.354,103.92 37.366,103.527C37.507,103.562 37.646,103.608 37.78,103.665C38.252,103.802 38.74,103.872 39.231,103.873L39.438,103.873L39.369,102.906L39.162,102.906C38.938,102.856 38.726,102.762 38.54,102.629C37.987,102.284 37.089,101.662 36.053,102.768L35.984,102.906C35.711,103.657 35.639,104.467 35.777,105.254C35.777,105.599 35.846,105.945 35.846,106.359C36.053,107.671 35.639,111.539 34.948,115.062L34.948,115.2C35.017,116.029 35.086,116.926 35.156,117.824L35.156,117.962C35.432,122.038 35.708,126.251 37.228,129.428L37.297,129.497C37.651,129.966 38.044,130.405 38.471,130.809C38.678,131.085 38.954,131.293 39.162,131.569L39.231,131.638C39.3,131.776 39.438,131.914 39.921,132.26L40.059,132.398L40.267,132.398C41.026,132.329 41.303,132.052 41.441,131.707L41.51,131.638C41.766,131.239 41.997,130.823 42.2,130.395C42.746,129.319 43.164,128.183 43.444,127.01L43.513,126.803C43.844,125.731 43.938,124.6 43.789,123.488C43.597,122.688 43.133,121.98 42.477,121.485Z" style="fill-rule:nonzero;"/>
            </g>
            <g transform="matrix(0.875748,0,0,0.875748,30.1687,-36.9575)">
                <path d="M39.092,176.601C39.852,175.91 41.441,172.181 41.51,171.49C41.51,171.421 41.579,171.352 41.579,171.214C41.658,170.653 41.846,170.114 42.131,169.625C42.339,169.418 42.546,169.142 42.822,168.866C43.39,168.412 43.86,167.848 44.203,167.208C44.659,166.398 44.517,165.376 43.858,164.721L43.237,164.031L43.167,164.998C43.112,165.554 42.948,166.094 42.684,166.586C42.446,166.939 42.168,167.264 41.855,167.553C41.579,167.83 41.234,168.175 40.819,168.658C40.478,169.307 40.179,169.976 39.921,170.661L39.852,170.799C39.714,171.076 39.645,171.421 39.507,171.697L39.438,171.835C39.015,173.099 38.484,174.324 37.849,175.496L37.78,175.565L37.435,176.118C37.185,176.497 36.954,176.889 36.744,177.292L36.33,178.121L37.228,177.844C37.982,177.676 38.647,177.232 39.092,176.601Z" style="fill-rule:nonzero;"/>
            </g>
            <g transform="matrix(0.875748,0,0,0.875748,30.1687,-36.9575)">
                <path d="M44.273,170.938L43.513,172.043C43.145,172.501 42.907,173.05 42.822,173.631L42.822,173.7C42.753,174.322 39.438,179.019 38.816,179.295L38.609,179.433C38.346,179.577 38.068,179.693 37.78,179.778L36.537,179.985L37.642,180.676C38.233,181.044 38.985,181.044 39.576,180.676C40.267,180.4 42.131,178.259 42.477,177.637C43.029,177.085 44.411,174.667 44.342,173.838C44.411,173.334 44.411,172.823 44.342,172.319L44.273,170.938Z" style="fill-rule:nonzero;"/>
            </g>
            <g transform="matrix(0.875748,0,0,0.875748,30.1687,-36.9575)">
                <path d="M16.3,181.229C16.098,180.784 15.936,180.321 15.817,179.847C15.895,179.673 15.942,179.486 15.955,179.295C15.968,179.082 16.014,178.872 16.093,178.673L16.3,178.259L15.886,178.052C15.627,177.913 15.315,177.913 15.057,178.052C14.504,178.397 14.366,179.916 14.435,180.469C14.509,181.162 14.799,181.815 15.264,182.334C15.469,182.525 15.744,182.625 16.024,182.61C16.143,182.628 16.266,182.604 16.369,182.541L16.922,182.403L16.645,181.712C16.579,181.521 16.459,181.354 16.3,181.229Z" style="fill-rule:nonzero;"/>
            </g>
            <g transform="matrix(0.875748,0,0,0.875748,30.1687,-36.9575)">
                <path d="M22.171,180.814L22.102,181.021L22.171,180.814C21.297,180.261 20.507,179.587 19.822,178.811L19.684,178.466C19.496,177.986 19.265,177.523 18.994,177.085L18.51,176.463L18.165,177.154C17.95,177.531 17.9,177.981 18.027,178.397C18.615,180.179 19.953,181.618 21.687,182.334C21.889,182.391 22.099,182.414 22.309,182.403C22.516,182.403 22.723,182.334 22.931,182.334L23.69,182.127L23.138,181.574C22.9,181.229 22.563,180.964 22.171,180.814Z" style="fill-rule:nonzero;"/>
            </g>
            <g transform="matrix(0.875748,0,0,0.875748,30.1687,-36.9575)">
                <path d="M16.784,169.487C16.08,169.187 15.409,168.817 14.781,168.382C14.632,168.251 14.47,168.135 14.297,168.037C14.159,167.968 14.09,167.899 13.952,167.83L13.192,167.277L13.123,168.175C13.037,168.717 13.282,169.261 13.745,169.556C14.494,170.108 15.306,170.572 16.162,170.938L16.369,171.007C17.126,171.333 17.864,171.702 18.579,172.112C18.68,172.22 18.797,172.313 18.925,172.388L18.925,173.217L19.684,172.802C19.964,172.648 20.147,172.361 20.168,172.043C20.174,171.626 19.965,171.234 19.615,171.007C18.802,170.438 17.92,169.974 16.991,169.625L16.784,169.487Z" style="fill-rule:nonzero;"/>
            </g>
            <g transform="matrix(0.875748,0,0,0.875748,30.1687,-36.9575)">
                <path d="M12.432,164.1L12.363,164.307L12.432,164.1L12.156,163.893L11.258,163.409L11.396,164.445C11.481,164.96 11.752,165.427 12.156,165.757L14.642,167.415C15.295,167.851 15.989,168.221 16.714,168.52L17.336,168.796C17.486,168.935 17.685,169.009 17.889,169.004L18.027,169.073L18.51,169.902L18.856,169.004C19.201,168.175 18.372,167.622 18.027,167.415C17.405,167.07 13.261,164.86 12.985,164.583C12.916,164.376 12.708,164.238 12.432,164.1Z" style="fill-rule:nonzero;"/>
            </g>
            <g transform="matrix(0.875748,0,0,0.875748,30.1687,-36.9575)">
                <path d="M24.934,134.539L25.072,134.608C25.281,134.745 25.553,134.745 25.762,134.608C25.929,134.522 26.054,134.373 26.108,134.193L26.108,133.503C26.056,133.361 25.959,133.239 25.831,133.157C25.682,133.026 25.52,132.91 25.348,132.812L25.21,132.674L24.243,132.121L23.345,131.569L23.207,131.5L23.138,131.5L22.931,131.293C22.225,130.462 21.323,129.82 20.306,129.428L20.237,129.428C19.028,129.223 17.8,129.154 16.576,129.221L15.54,129.221C14.625,129.138 13.734,128.88 12.916,128.461L11.672,127.977L12.432,129.013C13.048,130.048 14.132,130.72 15.333,130.809L16.576,130.809C17.683,130.752 18.793,130.798 19.892,130.947C20.306,130.947 20.444,131.154 20.789,131.569C20.984,131.832 21.217,132.065 21.48,132.26C21.773,132.528 22.098,132.76 22.447,132.95L22.033,133.157L21.549,133.365C20.976,133.562 20.472,133.922 20.099,134.401L20.03,134.47L20.03,134.608C20.012,135.114 20.131,135.615 20.375,136.058C20.452,136.184 20.499,136.326 20.513,136.473C20.663,137.098 21.188,137.567 21.825,137.647L22.033,137.647L23.414,137.44L22.033,137.025C21.756,136.956 21.756,136.542 21.687,135.989C21.675,135.708 21.629,135.43 21.549,135.16C22.171,134.746 23.552,133.848 24.45,134.539L24.519,134.677L24.726,134.677L24.934,134.539Z" style="fill-rule:nonzero;"/>
            </g>
        </g>
    </g>
</svg>
