<?xml version="1.0" encoding="UTF-8" standalone="no"?>
<!DOCTYPE svg PUBLIC "-//W3C//DTD SVG 1.1//EN" "http://www.w3.org/Graphics/SVG/1.1/DTD/svg11.dtd">
<svg width="100%" height="100%" viewBox="0 0 479 802" version="1.1" xmlns="http://www.w3.org/2000/svg" xmlns:xlink="http://www.w3.org/1999/xlink" xml:space="preserve" xmlns:serif="http://www.serif.com/" style="fill-rule:evenodd;clip-rule:evenodd;stroke-linecap:round;stroke-linejoin:round;stroke-miterlimit:1.5;">
    <g id="Plan-de-travail1" serif:id="Plan de travail1" transform="matrix(1,0,0,1,0.886516,1.42832)">
        <rect x="-0.887" y="-1.428" width="478.015" height="801.181" style="fill:none;"/>
        <g transform="matrix(0.788732,0,0,0.788732,-84.8303,76.8301)">
            <path d="M549.949,800L250.051,800C246.082,800 242.861,796.779 242.861,792.81L242.861,759.95C242.857,759.587 242.879,759.231 242.925,758.878C243.098,757.602 243.605,756.43 244.356,755.459C244.827,754.848 245.402,754.305 246.064,753.867C246.064,753.867 246.068,753.863 246.071,753.863C246.499,753.579 246.956,753.338 247.441,753.151L290.029,735.467C290.119,735.431 290.213,735.391 290.306,735.359L290.306,631.948L286.995,631.948C283.026,631.948 279.805,628.726 279.805,624.757C279.805,620.788 283.026,617.567 286.995,617.567L297.554,617.567L297.554,589.262C297.554,585.293 300.775,582.072 304.744,582.072L355.965,582.072C358.215,579.544 360.872,576.161 361.861,573.803C363.256,570.161 363.471,550.305 362.242,537.808C361.742,532.717 359.477,525.405 357.288,518.333C355.131,511.369 352.905,504.172 351.967,497.977C350.288,486.893 349.425,467.275 352.524,448.465C355.084,432.93 354.023,421.131 351.64,408.199C350.859,403.96 349.795,399.596 348.67,394.972C346.175,384.73 343.349,373.117 341.951,356.989C340.376,338.834 341.969,318.435 343.507,298.712C343.982,292.643 344.453,286.574 344.838,280.578C345.823,265.179 342.774,264.532 341.138,264.184C340.149,263.975 338.916,263.713 337.658,263.145C333.164,261.121 326.808,255.864 322.051,242.311C317.273,228.689 314.613,208.16 313.908,202.192C312.801,192.78 311.011,184.572 309.429,177.332C309.005,175.376 308.591,173.492 308.214,171.669C306.003,161.056 306.837,151.741 311.28,137.299C315.357,124.048 325.639,118.687 338.654,111.896C342.997,109.631 347.926,107.06 353.225,103.9L353.994,103.444C362.504,98.367 367.642,95.304 369.324,93.363C369.885,92.719 370.004,92.108 370,87.125L370,86.532C370,83.03 368.911,77.584 367.649,71.274C365.197,59.025 362.148,43.778 363.885,28.147C366.455,5.022 388.519,-0.356 400.005,0.014C411.531,-0.331 433.559,5.026 436.126,28.147C437.862,43.778 434.814,59.022 432.365,71.274C431.104,77.58 430.014,83.027 430.014,86.528L430.014,87.122C430.011,92.105 430.133,92.716 430.69,93.359C432.373,95.301 437.51,98.364 446.02,103.44L446.789,103.897C452.089,107.057 457.014,109.627 461.361,111.892C474.379,118.684 484.657,124.044 488.734,137.296C493.178,151.738 494.008,161.053 491.797,171.662C491.416,173.492 491.003,175.383 490.575,177.346C489,184.579 487.21,192.78 486.102,202.185C485.401,208.149 482.741,228.671 477.959,242.3C473.203,255.857 466.85,261.113 462.356,263.137C461.091,263.705 459.861,263.968 458.873,264.176C457.233,264.525 454.188,265.172 455.17,280.57C455.551,286.564 456.025,292.625 456.5,298.69C458.039,318.42 459.631,338.826 458.057,356.986C456.658,373.121 453.829,384.73 451.334,394.976C450.208,399.596 449.148,403.96 448.364,408.195C445.98,421.127 444.92,432.923 447.483,448.461C450.582,467.271 449.723,486.89 448.04,497.974C447.102,504.168 444.873,511.362 442.72,518.322C440.53,525.398 438.265,532.71 437.765,537.801C436.536,550.298 436.752,570.154 438.154,573.81C439.157,576.204 441.893,579.638 444.05,582.061L495.263,582.061C499.232,582.061 502.453,585.282 502.453,589.251L502.453,617.556L513.012,617.556C516.981,617.556 520.203,620.777 520.203,624.746C520.203,628.715 516.981,631.937 513.012,631.937L509.698,631.937L509.698,735.348C509.791,735.384 509.884,735.42 509.974,735.456L552.563,753.141C553.048,753.328 553.505,753.568 553.932,753.852C554.605,754.298 555.187,754.845 555.662,755.47C556.402,756.434 556.902,757.584 557.078,758.843C557.129,759.206 557.154,759.572 557.147,759.943L557.147,792.802C557.139,796.782 553.918,800 549.949,800ZM286.118,752.662L513.886,752.662L505.779,749.294L294.225,749.294L286.118,752.662ZM488.069,596.449L488.069,617.563L488.069,596.449Z" style="fill-rule:nonzero;"/>
            <path d="M310.636,626.412L486.44,626.412" style="fill:none;stroke:white;stroke-width:6.34px;"/>
        </g>
    </g>
</svg>
