<?xml version="1.0" encoding="UTF-8" standalone="no"?>
<!DOCTYPE svg PUBLIC "-//W3C//DTD SVG 1.1//EN" "http://www.w3.org/Graphics/SVG/1.1/DTD/svg11.dtd">
<svg width="100%" height="100%" viewBox="0 0 24 24" version="1.1" xmlns="http://www.w3.org/2000/svg" xmlns:xlink="http://www.w3.org/1999/xlink" xml:space="preserve" xmlns:serif="http://www.serif.com/" style="fill-rule:evenodd;clip-rule:evenodd;stroke-linejoin:round;stroke-miterlimit:2;">
    <g transform="matrix(0.24,0,0,0.24,0,0)">
        <g id="path4138" transform="matrix(0.243389,0,0,0.243389,22.7217,8.84702)">
            <path d="M17.715,367.38C16.898,366.071 15.383,365 14.348,365C13.314,365 10.226,362.891 7.486,360.313C2.452,355.576 1.371,351.996 3.708,347.796C4.372,346.602 5.533,342.408 6.288,338.477C7.886,330.159 7.326,330.855 27.188,312.494C35.61,304.709 42.5,297.894 42.5,297.35C42.5,296.806 40.344,293.282 37.708,289.52C31.211,280.245 23.029,259.208 20.68,245.738C18.179,231.396 18.244,229.246 21.242,227.146C22.613,226.186 23.4,225.067 22.992,224.659C20.569,222.236 34.446,182.387 43.544,165.644C45.032,162.904 46.25,159.644 46.25,158.4C46.25,155.161 42.535,139.888 40.941,136.579C39.974,134.569 40.003,130.463 41.048,121.965C43.055,105.634 42.881,100.372 40.07,92.374C37.496,85.049 35,65.056 35,51.753C35,44.962 34.607,43.537 32.362,42.198C29.485,40.483 25,31.346 25,27.202C25,25.777 26.435,22.73 28.189,20.43C29.942,18.131 30.962,16.25 30.455,16.25C29.948,16.25 31.149,14.562 33.125,12.5C37.51,7.923 40,7.697 40,11.875C40,15.032 41.702,16.053 43.125,13.75C44.122,12.138 52.5,12.112 52.5,13.721C52.5,15.775 71.929,13.969 80.337,11.134C89.211,8.143 99.504,6.791 104.281,7.99C106.96,8.662 107.402,9.332 106.786,11.784C106.146,14.334 106.683,14.995 110.52,16.382C112.984,17.273 115,18.452 115,19.001C115,20.625 120.617,20.161 133.641,17.462C142.96,15.531 146.706,15.235 149.309,16.225C152.624,17.485 152.707,17.748 151.986,24.7C151.577,28.646 151.103,34.729 150.934,38.217C150.582,45.451 146.946,50.326 137.931,55.65C135.074,57.337 130.855,61.102 128.556,64.017C126.256,66.933 121.349,72.706 117.65,76.846C110.937,84.361 105,92.764 105,94.75C105,95.327 111.081,98.713 118.513,102.275C129.466,107.523 133.264,108.75 138.553,108.75C142.142,108.75 148.475,109.894 152.625,111.292C156.775,112.69 164.21,114.255 169.148,114.769C177.885,115.68 178.406,115.572 188.596,110.746C197.504,106.527 200.209,105.81 206.721,105.943C218.607,106.185 223.75,107.997 223.75,111.941C223.75,112.84 225.016,113.756 226.563,113.976C228.109,114.195 229.915,115.604 230.574,117.106C231.233,118.608 233.123,120.452 234.773,121.204C236.982,122.21 237.593,123.262 237.088,125.19C236.669,126.793 237.452,129.227 239.109,131.468C241.423,134.598 241.548,135.297 239.97,136.295C238.955,136.937 237.157,137.47 235.975,137.481C234.792,137.491 230.813,138.877 227.133,140.56C223.453,142.244 218.828,143.914 216.855,144.271C214.882,144.629 212.786,145.783 212.197,146.836C211.474,148.128 209.216,148.754 205.251,148.763C202.019,148.771 192.979,149.895 185.161,151.263C177.344,152.631 168.518,153.75 165.548,153.75C162.578,153.75 159.8,154.312 159.375,155C158.34,156.675 152.095,156.595 150.384,154.884C148.626,153.126 145.653,154.71 140.389,160.21C137.177,163.565 135.685,167.126 132.715,178.515C130.381,187.463 127.529,195.036 124.948,199.14C122.704,202.707 117.815,210.877 114.083,217.296L107.298,228.967L117.603,244.171C128.808,260.702 140.789,276.25 142.322,276.25C142.853,276.25 144.315,278.359 145.571,280.938C147.481,284.86 147.932,289.602 148.333,309.981C148.596,323.377 149.365,336.39 150.041,338.9C151.426,344.046 153.375,344.952 163.125,344.99C170.574,345.018 177.974,346.902 180.479,349.407C181.54,350.468 182.309,353.69 182.334,357.173C182.4,366.461 181.78,367.5 176.166,367.5C173.29,367.5 171.25,368.097 171.25,368.94C171.25,370.892 122.148,369.57 121.492,367.6C121.244,366.858 120.386,366.25 119.583,366.25C118.781,366.25 116.554,364.281 114.634,361.875C112.331,358.988 110.089,357.5 108.041,357.5C105.915,357.5 104.579,356.554 103.796,354.496C101.961,349.669 100.225,337.844 99.314,323.968C98.581,312.801 98.064,310.609 95.478,307.718C93.834,305.879 92.796,305.262 93.171,306.347C94.574,310.409 90.742,315.982 78.104,328.258L65.098,340.891L77.236,343.883C89.248,346.844 89.386,346.921 90.451,351.25C91.135,354.03 91.003,357.561 90.09,360.938C88.841,365.558 88.204,366.25 85.202,366.25C83.303,366.25 81.135,366.865 80.383,367.617C79.493,368.507 68.585,369.119 49.109,369.372C20.828,369.739 19.121,369.631 17.715,367.38ZM157.5,110.716C154.406,109.898 150.292,108.559 148.356,107.74C146.421,106.92 144.03,106.25 143.044,106.25C142.057,106.25 141.25,105.622 141.25,104.854C141.25,104.074 140.148,103.747 138.751,104.112C137.377,104.471 135.989,104.339 135.668,103.819C134.658,102.184 171.659,67.704 176.241,66.009C177.793,65.435 185.558,63.802 193.498,62.381C209.047,59.597 213.75,60.175 213.75,64.869C213.75,66.201 214.453,67.549 215.313,67.865C216.547,68.317 216.553,68.779 215.343,70.064C214.208,71.268 214.172,72.127 215.203,73.369C216.25,74.631 216.088,75.608 214.548,77.309C213.422,78.554 212.5,80.448 212.5,81.518C212.5,88.633 201.723,95.819 189.043,97.158C182.731,97.825 182.365,98.071 180.122,103.141C177.49,109.091 175.199,111.093 173.734,108.723C172.974,107.494 171.957,107.746 169.33,109.813C165.531,112.801 165.418,112.809 157.5,110.716Z" style="fill-rule:nonzero;"/>
        </g>
    </g>
</svg>
