<?xml version="1.0" encoding="UTF-8" standalone="no"?>
<!DOCTYPE svg PUBLIC "-//W3C//DTD SVG 1.1//EN" "http://www.w3.org/Graphics/SVG/1.1/DTD/svg11.dtd">
<svg width="100%" height="100%" viewBox="0 0 800 800" version="1.1" xmlns="http://www.w3.org/2000/svg" xmlns:xlink="http://www.w3.org/1999/xlink" xml:space="preserve" xmlns:serif="http://www.serif.com/" style="fill-rule:evenodd;clip-rule:evenodd;stroke-linejoin:round;stroke-miterlimit:2;">
    <g id="path241" transform="matrix(4.97937,0,0,4.97937,-259.026,127.506)">
        <path d="M132.505,10.202C88.196,10.202 52.601,29.913 52.601,53.792C52.601,77.669 87.842,97.38 132.505,97.38C176.906,97.38 212.398,77.669 212.398,53.792C212.398,29.913 176.73,10.202 132.505,10.202ZM132.421,95.112C91.661,95.112 56.778,76.237 56.778,53.768C56.778,31.302 92.46,12.019 132.421,12.019C173.088,12.019 208.017,31.302 208.017,53.768C208.018,76.237 172.911,95.112 132.421,95.112Z" style="fill-rule:nonzero;"/>
    </g>
    <g id="path243" transform="matrix(4.97937,0,0,4.97937,-259.026,127.506)">
        <path d="M192.748,48.364C190.29,48.865 188.006,49.65 185.665,50.348C184.159,50.799 182.628,51.213 181.007,51.489L180.345,51.48L180.635,51.043C180.861,50.809 181.089,50.576 181.323,50.348C183.661,48.053 186.312,46.074 188.758,43.85C189.525,42.954 191.208,42.27 190.663,40.641C190.165,40.381 188.816,40.924 188.172,41.211C183.416,43.667 179.038,46.426 175.017,50.263C174.899,50.375 174.783,50.487 174.664,50.6C172.383,52.325 171.962,56.317 168.545,56.086C166.378,55.886 166.065,55.907 165.232,55.613C168.718,52.923 175.423,44.027 176.021,41.901C176.021,41.901 176.623,39.976 175.792,40.041C172.597,41.205 169.582,43.91 167.092,46.102C167.323,45.022 169.074,42.959 168.222,41.717C162.69,42.882 154.888,50.285 154.85,50.31C153.368,51.293 152.82,54.455 150.513,53.985C149.07,53.786 147.331,53.768 146.481,53.28C147.966,52.396 149.386,51.407 150.762,50.348C153.957,47.895 156.925,45.075 159.948,42.36C160.121,41.964 161.118,41.569 160.551,40.969C159.587,40.198 158.457,41.336 157.409,41.52C152.618,43.62 149.381,46.446 146.219,50.348C145.628,51.077 144.747,52.018 144.22,52.858C141.962,52.592 140.757,52.712 139.652,51.997C140.327,51.439 141.011,50.893 141.698,50.349C145.384,47.429 149.143,44.55 151.956,40.219C151.673,38.749 150.194,39.927 149.483,40.208C144.453,42.691 140.319,45.754 137.152,50.605C136.956,50.904 136.767,51.211 136.585,51.53C134.37,51.471 132.456,51.038 130.543,50.6C130.502,50.59 130.462,50.581 130.421,50.573L130.438,50.368C135.26,47.903 139.557,43.67 142.881,38.668C142.881,38.668 145.64,33.827 139.587,37.829C135.07,40.733 130.955,44.567 128.071,50.02C128.071,50.02 125.033,50.135 125.033,49.803C127.959,46.211 131.353,41.576 133.073,36.846C133.236,36.109 133.686,34.563 132.6,34.399C128.533,36.106 125.845,40.889 123.665,45.373C122.999,46.689 122.636,48.351 122.045,49.605C119.322,49.471 117.442,49.709 114.83,48.93C118.104,46.055 121.682,43.687 124.664,40.235C125.169,39.296 128.521,36.999 128.437,34.036C127.393,33.395 126.343,34.151 125.706,34.621L116.518,41.943L116.036,41.968C117.501,39.348 120.698,35.513 122.011,32.805C122.452,31.897 122.999,31.072 122.958,29.967L122.147,29.704C115.504,32.559 109.78,39.071 107.533,47.467C106.983,48.244 106.716,49.733 105.585,49.289C105.443,47.009 104.733,44.885 103.952,42.822C101.104,36.867 97.017,32.523 91.792,29.384C90.94,28.898 90.448,29.818 90.729,30.529C91.462,34.718 94.051,37.35 95.834,40.531C97.954,43.81 100.831,46.775 103.254,49.736C102.427,50.019 83.533,54.517 80.174,57.238C78.41,58.209 75.588,60.465 75.632,65.406C75.78,66.862 76.798,68.294 78.09,68.726C79.312,68.902 80.174,69.009 80.978,68.459C84.46,64.022 88.497,59.962 92.996,57.262C96.083,55.646 98.35,54.062 101.895,53.616C103.356,54.979 104.303,56.773 106.298,58.425C110.229,62.003 113.679,64.433 119.1,65.32L119.64,65.14L119.442,64.642C116.577,60.472 112.193,57.841 107.71,55.662C106.942,55.082 105.084,54.101 104.981,52.923C107.744,51.996 111.421,51.729 114.742,52.526C118.707,59.415 123.08,66.975 129.438,71.312C129.912,71.422 130.243,70.763 130.005,70.332C125.597,59.599 122.78,58.631 118.262,53.7C118.019,53.335 117.681,52.479 118.325,52.194L122.546,52.26C123.904,52.448 125.763,52.061 126.094,52.658C126.298,59.756 130.868,65.181 133.627,70.58C133.627,70.58 134.513,71.09 134.465,70.163L134.494,70.103C133.365,57.604 128.683,54.726 127.975,52.602C128.696,52.552 129.487,52.597 130.077,52.922C133.049,58.969 137.083,63.534 142.397,66.958C142.513,67.033 143.175,67.115 142.745,66.151C141.2,60.958 136.428,58.297 133.332,54.383L132.79,53.372L133.416,53.289C134.742,53.553 136.535,53.852 137.509,54.486C139.275,57.873 141.658,60.486 144.198,62.908C146.3,64.81 148.097,67.031 151.274,67.652L151.61,67.603L151.711,67.33L151.613,66.927C149.647,61.785 144.347,59.621 140.607,55.996C140.353,55.767 139.884,54.832 140.585,54.686L146.61,55.561C155.673,67.662 159.179,67.179 159.179,67.179C159.179,67.179 161.898,67.81 160.654,65.818C157.699,62.748 155.123,61.338 151.591,58.538C150.956,57.932 149.368,56.862 149.532,55.776C150.826,55.976 151.043,55.959 153.681,56.257C154.512,56.376 155.634,56.521 156.271,56.806C161.003,58.917 161.417,65.538 172.904,66.93C173.313,66.966 173.401,66.416 173.117,66.056C169.836,63.501 161.279,57.763 160.754,57.105C161.849,57.204 166.45,57.861 167.176,58.2C172.954,61.318 176.489,63.644 184.755,62.551C185.465,61.512 184.313,61.092 183.336,60.707L178.681,58.896C178.078,58.707 175.493,58.2 174.565,57.901C179.512,56.341 186.038,54.539 190.393,51.896C191.083,51.355 191.9,50.941 192.575,50.345C193.032,49.942 193.42,49.447 193.659,48.779C193.891,48.046 192.748,48.364 192.748,48.364ZM109.576,49.228C109.055,48.908 109.469,48.273 109.629,48.011C109.784,47.819 111.559,44.626 113.128,45.447C113.406,46.237 110.687,49.405 109.576,49.228ZM164.078,50.358C163.207,51.788 163.832,53.831 162.692,55.165L154.973,54.171C159.454,52.575 163.095,49.515 165.247,48.269L164.078,50.358ZM172.405,56.306C172.341,55.474 173.3,54.735 173.898,54.169C176.494,52.044 176.884,54.11 176.884,54.11C175.703,55.04 174.03,56.136 172.405,56.306Z" style="fill-rule:nonzero;"/>
    </g>
</svg>
