<?xml version="1.0" encoding="UTF-8" standalone="no"?>
<!DOCTYPE svg PUBLIC "-//W3C//DTD SVG 1.1//EN" "http://www.w3.org/Graphics/SVG/1.1/DTD/svg11.dtd">
<svg width="100%" height="100%" viewBox="0 0 24 24" version="1.1" xmlns="http://www.w3.org/2000/svg" xmlns:xlink="http://www.w3.org/1999/xlink" xml:space="preserve" xmlns:serif="http://www.serif.com/" style="fill-rule:evenodd;clip-rule:evenodd;stroke-linejoin:round;stroke-miterlimit:2;">
    <g transform="matrix(0.24,0,0,0.24,0,0)">
        <g id="path4142" transform="matrix(0.269438,0,0,0.269438,-0.548913,37.6907)">
            <path d="M6.448,223.092C4.964,221.206 3.75,218.724 3.75,217.577C3.75,215.078 9.763,209.319 17.5,204.405C25.171,199.534 32.148,191.869 35.735,184.375C39.501,176.504 39.465,173.686 35.482,164.375C27.697,146.177 26.037,138.979 25.102,119.375C24.602,108.877 23.544,99.399 22.7,97.84C21.87,96.308 18.43,91.406 15.054,86.946C6.888,76.157 5.869,70.234 10.539,60.69C16.597,48.307 29.149,36.799 39.12,34.485C41.042,34.039 43.244,34.062 44.013,34.538C44.782,35.013 46.979,35.525 48.896,35.676C53.685,36.053 64.51,44.268 68.417,50.489C74,59.382 86.202,73.599 92.144,78.136C99.344,83.633 104.894,83.993 108.659,79.206C112.31,74.566 111.901,69.882 106.875,58.75C103.83,52.007 102.5,47.238 102.5,43.066C102.5,37.612 102.997,36.595 108.007,31.795C116.931,23.244 124.029,21.285 153.364,19.276C181.643,17.339 187.476,15.906 204.502,6.716C217.099,-0.084 222.239,-0.454 227.735,5.042C231.345,8.653 231.504,9.244 231.046,17.356C230,35.873 216.812,53.498 198.584,60.741C182.713,67.048 174.612,71.671 171.599,76.142C166.196,84.16 168.703,92.512 177.286,95.084C181.2,96.256 184.973,95.932 199.949,93.134C212.273,90.833 219.716,90.033 223.646,90.589C234.4,92.109 248.113,96.434 259.442,101.878C273.202,108.491 287.668,121.163 305.815,142.5C327.57,168.08 342.798,181.25 350.617,181.25C352.783,181.25 357.129,182.127 360.276,183.199C372.087,187.224 373.237,194.448 362.043,194.297C357.586,194.237 355.076,193.317 350.953,190.231C348.023,188.037 340.929,183.126 335.189,179.318C329.449,175.511 315.387,164.642 303.939,155.166C292.491,145.69 280.875,136.42 278.125,134.566C271.296,129.963 264.57,128.23 260.943,130.14C254.656,133.451 254.744,137.66 261.385,151.316C267.058,162.982 269.384,169.978 270.714,179.375C271.201,182.813 272.927,190.084 274.55,195.533C278.414,208.511 278.334,212.567 274.114,217.582C269.347,223.248 262.141,226.19 252.951,226.223C243.71,226.256 240.263,223.995 239.173,217.184C238.57,213.419 239.071,211.514 241.711,207.524C245.881,201.222 245.95,196.93 241.923,194.291C237.831,191.611 231.417,193.65 225.159,199.621C218.536,205.94 201.26,219.301 196.625,221.689C194.424,222.823 190.106,223.75 187.028,223.75C182.471,223.75 180.95,223.138 178.841,220.456C173.834,214.092 176.656,209.047 188.859,202.543C198.331,197.494 205.507,191.201 210.21,183.818C216.574,173.828 214.118,161.648 204.743,156.697C196.906,152.559 186.602,153.882 146.015,164.238C125.604,169.446 102.395,175.115 94.439,176.835C86.484,178.555 77.665,181.141 74.842,182.581C72.019,184.021 61.467,193.185 51.393,202.945C41.32,212.705 30.838,221.766 28.101,223.079C25.364,224.392 19.98,225.704 16.135,225.994C9.703,226.48 8.93,226.248 6.448,223.092Z" style="fill-rule:nonzero;"/>
        </g>
    </g>
</svg>
